<svg xmlns="http://www.w3.org/2000/svg" xmlns:xlink="http://www.w3.org/1999/xlink" contentStyleType="text/css" data-diagram-type="SEQUENCE" height="1169px" preserveAspectRatio="none" style="width:830px;height:1169px;background:#FFFFFF;" version="1.1" viewBox="0 0 830 1169" width="830px" zoomAndPan="magnify"><title>jnr Program Execution Flow</title><defs/><g><text fill="#000000" font-family="Verdana" font-size="22" font-weight="bold" lengthAdjust="spacing" textLength="344.2549" x="247.2937" y="37.1182">jnr Program Execution Flow</text><g><title>Main</title><rect fill="#FFFFFF" height="906.6875" style="stroke:#000000;stroke-width:1;" width="10" x="158.6274" y="162.5513"/></g><g><title>Lexer</title><rect fill="#FFFFFF" height="115.3979" style="stroke:#000000;stroke-width:1;" width="10" x="346.6597" y="289.7485"/></g><g><title>Parser</title><rect fill="#FFFFFF" height="804.2896" style="stroke:#000000;stroke-width:1;" width="10" x="471.7866" y="235.1499"/></g><g><title>Symbol</title><rect fill="#FFFFFF" height="59.5986" style="stroke:#000000;stroke-width:1;" width="10" x="636.4595" y="502.5444"/></g><g><title>Symbol</title><rect fill="#FFFFFF" height="59.5986" style="stroke:#000000;stroke-width:1;" width="10" x="636.4595" y="607.311"/></g><g><title>Symbol</title><rect fill="#FFFFFF" height="89.3979" style="stroke:#000000;stroke-width:1;" width="10" x="636.4595" y="712.0776"/></g><g><title>Symbol</title><rect fill="#FFFFFF" height="59.5986" style="stroke:#000000;stroke-width:1;" width="10" x="636.4595" y="936.0415"/></g><rect fill="#FFFFFF" height="760.4902" style="stroke:#000000;stroke-width:1;" width="809.8423" x="15" y="250.1499"/><rect fill="#FFFFFF" height="540.6943" style="stroke:#000000;stroke-width:1;" width="789.8423" x="25" y="462.9458"/><rect fill="#FFFFFF" height="104.7666" style="stroke:none;stroke-width:1;" width="789.8423" x="25" y="570.1431"/><rect fill="#FFFFFF" height="164.3652" style="stroke:none;stroke-width:1;" width="789.8423" x="25" y="674.9097"/><rect fill="#FFFFFF" height="164.3652" style="stroke:none;stroke-width:1;" width="789.8423" x="25" y="839.2749"/><g><title>User</title><rect fill="#000000" fill-opacity="0.00000" height="956.4868" width="8" x="49.9277" y="130.752"/><line style="stroke:#000000;stroke-width:1;stroke-dasharray:5,5;" x1="53" x2="53" y1="130.752" y2="1087.2388"/></g><g><title>Main</title><rect fill="#000000" fill-opacity="0.00000" height="956.4868" width="8" x="159.6274" y="130.752"/><line style="stroke:#000000;stroke-width:1;stroke-dasharray:5,5;" x1="163.1733" x2="163.1733" y1="130.752" y2="1087.2388"/></g><g><title>Lexer</title><rect fill="#000000" fill-opacity="0.00000" height="956.4868" width="8" x="347.6597" y="130.752"/><line style="stroke:#000000;stroke-width:1;stroke-dasharray:5,5;" x1="351.0439" x2="351.0439" y1="130.752" y2="1087.2388"/></g><g><title>Parser</title><rect fill="#000000" fill-opacity="0.00000" height="956.4868" width="8" x="472.7866" y="130.752"/><line style="stroke:#000000;stroke-width:1;stroke-dasharray:5,5;" x1="476.5391" x2="476.5391" y1="130.752" y2="1087.2388"/></g><g><title>Symbol</title><rect fill="#000000" fill-opacity="0.00000" height="956.4868" width="8" x="637.4595" y="130.752"/><line style="stroke:#000000;stroke-width:1;stroke-dasharray:5,5;" x1="641.1924" x2="641.1924" y1="130.752" y2="1087.2388"/></g><g><title>Variables</title><rect fill="#000000" fill-opacity="0.00000" height="956.4868" width="8" x="765.6416" y="130.752"/><line style="stroke:#000000;stroke-width:1;stroke-dasharray:5,5;" x1="769.4409" x2="769.4409" y1="130.752" y2="1087.2388"/></g><g class="participant participant-head" data-participant="User"><text fill="#000000" font-family="Verdana" font-size="14" lengthAdjust="spacing" textLength="31.8555" x="35" y="127.8125">User</text><ellipse cx="53.9277" cy="61.7373" fill="#FFFFFF" rx="8" ry="8" style="stroke:#000000;stroke-width:1;"/><path d="M53.9277,69.7373 L53.9277,96.7373 M40.9277,77.7373 L66.9277,77.7373 M53.9277,96.7373 L40.9277,111.7373 M53.9277,96.7373 L66.9277,111.7373" fill="none" style="stroke:#000000;stroke-width:1;"/></g><g class="participant participant-tail" data-participant="User"><text fill="#000000" font-family="Verdana" font-size="14" lengthAdjust="spacing" textLength="31.8555" x="35" y="1100.314">User</text><ellipse cx="53.9277" cy="1112.2534" fill="#FFFFFF" rx="8" ry="8" style="stroke:#000000;stroke-width:1;"/><path d="M53.9277,1120.2534 L53.9277,1147.2534 M40.9277,1128.2534 L66.9277,1128.2534 M53.9277,1147.2534 L40.9277,1162.2534 M53.9277,1147.2534 L66.9277,1162.2534" fill="none" style="stroke:#000000;stroke-width:1;"/></g><g class="participant participant-head" data-participant="Main"><rect fill="#FFFFFF" height="31.0146" rx="2.5" ry="2.5" style="stroke:#000000;stroke-width:1;" width="46.9082" x="140.1733" y="98.7373"/><text fill="#000000" font-family="Verdana" font-size="14" lengthAdjust="spacing" textLength="32.9082" x="147.1733" y="119.8125">Main</text></g><g class="participant participant-tail" data-participant="Main"><rect fill="#FFFFFF" height="31.0146" rx="2.5" ry="2.5" style="stroke:#000000;stroke-width:1;" width="46.9082" x="140.1733" y="1086.2388"/><text fill="#000000" font-family="Verdana" font-size="14" lengthAdjust="spacing" textLength="32.9082" x="147.1733" y="1107.314">Main</text></g><g class="participant participant-head" data-participant="Lexer"><rect fill="#FFFFFF" height="48.0293" rx="2.5" ry="2.5" style="stroke:#000000;stroke-width:1;" width="81.2314" x="311.0439" y="81.7227"/><text fill="#000000" font-family="Verdana" font-size="14" lengthAdjust="spacing" textLength="38.7324" x="332.2935" y="102.7979">Lexer</text><text fill="#000000" font-family="Verdana" font-size="14" lengthAdjust="spacing" textLength="67.2314" x="318.0439" y="119.8125">(lex.yy.c)</text></g><g class="participant participant-tail" data-participant="Lexer"><rect fill="#FFFFFF" height="48.0293" rx="2.5" ry="2.5" style="stroke:#000000;stroke-width:1;" width="81.2314" x="311.0439" y="1086.2388"/><text fill="#000000" font-family="Verdana" font-size="14" lengthAdjust="spacing" textLength="38.7324" x="332.2935" y="1107.314">Lexer</text><text fill="#000000" font-family="Verdana" font-size="14" lengthAdjust="spacing" textLength="67.2314" x="318.0439" y="1124.3286">(lex.yy.c)</text></g><g class="participant participant-head" data-participant="Parser"><rect fill="#FFFFFF" height="48.0293" rx="2.5" ry="2.5" style="stroke:#000000;stroke-width:1;" width="86.4951" x="433.5391" y="81.7227"/><text fill="#000000" font-family="Verdana" font-size="14" lengthAdjust="spacing" textLength="44.4336" x="454.5698" y="102.7979">Parser</text><text fill="#000000" font-family="Verdana" font-size="14" lengthAdjust="spacing" textLength="72.4951" x="440.5391" y="119.8125">(jnr.tab.c)</text></g><g class="participant participant-tail" data-participant="Parser"><rect fill="#FFFFFF" height="48.0293" rx="2.5" ry="2.5" style="stroke:#000000;stroke-width:1;" width="86.4951" x="433.5391" y="1086.2388"/><text fill="#000000" font-family="Verdana" font-size="14" lengthAdjust="spacing" textLength="44.4336" x="454.5698" y="1107.314">Parser</text><text fill="#000000" font-family="Verdana" font-size="14" lengthAdjust="spacing" textLength="72.4951" x="440.5391" y="1124.3286">(jnr.tab.c)</text></g><g class="participant participant-head" data-participant="SymTable"><rect fill="#FFFFFF" height="48.0293" rx="2.5" ry="2.5" style="stroke:#000000;stroke-width:1;" width="66.5342" x="608.1924" y="81.7227"/><text fill="#000000" font-family="Verdana" font-size="14" lengthAdjust="spacing" textLength="52.5342" x="615.1924" y="102.7979">Symbol</text><text fill="#000000" font-family="Verdana" font-size="14" lengthAdjust="spacing" textLength="37.9395" x="622.4897" y="119.8125">Table</text></g><g class="participant participant-tail" data-participant="SymTable"><rect fill="#FFFFFF" height="48.0293" rx="2.5" ry="2.5" style="stroke:#000000;stroke-width:1;" width="66.5342" x="608.1924" y="1086.2388"/><text fill="#000000" font-family="Verdana" font-size="14" lengthAdjust="spacing" textLength="52.5342" x="615.1924" y="1107.314">Symbol</text><text fill="#000000" font-family="Verdana" font-size="14" lengthAdjust="spacing" textLength="37.9395" x="622.4897" y="1124.3286">Table</text></g><g class="participant participant-head" data-participant="Vars"><text fill="#000000" font-family="Verdana" font-size="14" lengthAdjust="spacing" textLength="64.4014" x="734.4409" y="127.8125">Variables</text><path d="M751.6416,77.7373 C751.6416,67.7373 769.6416,67.7373 769.6416,67.7373 C769.6416,67.7373 787.6416,67.7373 787.6416,77.7373 L787.6416,103.7373 C787.6416,113.7373 769.6416,113.7373 769.6416,113.7373 C769.6416,113.7373 751.6416,113.7373 751.6416,103.7373 L751.6416,77.7373" fill="#FFFFFF" style="stroke:#000000;stroke-width:1;"/><path d="M751.6416,77.7373 C751.6416,87.7373 769.6416,87.7373 769.6416,87.7373 C769.6416,87.7373 787.6416,87.7373 787.6416,77.7373" fill="none" style="stroke:#000000;stroke-width:1;"/></g><g class="participant participant-tail" data-participant="Vars"><text fill="#000000" font-family="Verdana" font-size="14" lengthAdjust="spacing" textLength="64.4014" x="734.4409" y="1100.314">Variables</text><path d="M751.6416,1113.2534 C751.6416,1103.2534 769.6416,1103.2534 769.6416,1103.2534 C769.6416,1103.2534 787.6416,1103.2534 787.6416,1113.2534 L787.6416,1139.2534 C787.6416,1149.2534 769.6416,1149.2534 769.6416,1149.2534 C769.6416,1149.2534 751.6416,1149.2534 751.6416,1139.2534 L751.6416,1113.2534" fill="#FFFFFF" style="stroke:#000000;stroke-width:1;"/><path d="M751.6416,1113.2534 C751.6416,1123.2534 769.6416,1123.2534 769.6416,1123.2534 C769.6416,1123.2534 787.6416,1123.2534 787.6416,1113.2534" fill="none" style="stroke:#000000;stroke-width:1;"/></g><g><title>Main</title><rect fill="#FFFFFF" height="906.6875" style="stroke:#000000;stroke-width:1;" width="10" x="158.6274" y="162.5513"/></g><g><title>Lexer</title><rect fill="#FFFFFF" height="115.3979" style="stroke:#000000;stroke-width:1;" width="10" x="346.6597" y="289.7485"/></g><g><title>Parser</title><rect fill="#FFFFFF" height="804.2896" style="stroke:#000000;stroke-width:1;" width="10" x="471.7866" y="235.1499"/></g><g><title>Symbol</title><rect fill="#FFFFFF" height="59.5986" style="stroke:#000000;stroke-width:1;" width="10" x="636.4595" y="502.5444"/></g><g><title>Symbol</title><rect fill="#FFFFFF" height="59.5986" style="stroke:#000000;stroke-width:1;" width="10" x="636.4595" y="607.311"/></g><g><title>Symbol</title><rect fill="#FFFFFF" height="89.3979" style="stroke:#000000;stroke-width:1;" width="10" x="636.4595" y="712.0776"/></g><g><title>Symbol</title><rect fill="#FFFFFF" height="59.5986" style="stroke:#000000;stroke-width:1;" width="10" x="636.4595" y="936.0415"/></g><g class="message" data-participant-1="User" data-participant-2="Main"><polygon fill="#000000" points="146.6274,158.5513,156.6274,162.5513,146.6274,166.5513,150.6274,162.5513" style="stroke:#000000;stroke-width:1;"/><line style="stroke:#000000;stroke-width:1;" x1="53.9277" x2="152.6274" y1="162.5513" y2="162.5513"/><text fill="#000000" font-family="Verdana" font-size="13" lengthAdjust="spacing" textLength="85.6997" x="60.9277" y="157.8218">Run program</text></g><g class="message" data-participant-1="Main" data-participant-2="Main"><line style="stroke:#000000;stroke-width:1;" x1="168.6274" x2="210.6274" y1="192.3506" y2="192.3506"/><line style="stroke:#000000;stroke-width:1;" x1="210.6274" x2="210.6274" y1="192.3506" y2="205.3506"/><line style="stroke:#000000;stroke-width:1;" x1="169.6274" x2="210.6274" y1="205.3506" y2="205.3506"/><polygon fill="#000000" points="179.6274,201.3506,169.6274,205.3506,179.6274,209.3506,175.6274,205.3506" style="stroke:#000000;stroke-width:1;"/><text fill="#000000" font-family="Verdana" font-size="13" lengthAdjust="spacing" textLength="154.0322" x="175.6274" y="187.6211">Print welcome message</text></g><g class="message" data-participant-1="Main" data-participant-2="Parser"><polygon fill="#000000" points="459.7866,231.1499,469.7866,235.1499,459.7866,239.1499,463.7866,235.1499" style="stroke:#000000;stroke-width:1;"/><line style="stroke:#000000;stroke-width:1;" x1="168.6274" x2="465.7866" y1="235.1499" y2="235.1499"/><text fill="#000000" font-family="Verdana" font-size="13" lengthAdjust="spacing" textLength="63.1655" x="175.6274" y="230.4204">yyparse()</text></g><path d="M15,250.1499 L91.3828,250.1499 L91.3828,257.9492 L81.3828,267.9492 L15,267.9492 L15,250.1499" fill="#FFFFFF" style="stroke:#000000;stroke-width:1;"/><rect fill="none" height="760.4902" style="stroke:#000000;stroke-width:1;" width="809.8423" x="15" y="250.1499"/><text fill="#000000" font-family="Verdana" font-size="13" font-weight="bold" lengthAdjust="spacing" textLength="31.3828" x="30" y="264.2197">loop</text><text fill="#000000" font-family="Verdana" font-size="11" font-weight="bold" lengthAdjust="spacing" textLength="131.6025" x="106.3828" y="263.209">[For each statement]</text><g class="message" data-participant-1="Parser" data-participant-2="Lexer"><polygon fill="#000000" points="367.6597,285.7485,357.6597,289.7485,367.6597,293.7485,363.6597,289.7485" style="stroke:#000000;stroke-width:1;"/><line style="stroke:#000000;stroke-width:1;" x1="361.6597" x2="470.7866" y1="289.7485" y2="289.7485"/><text fill="#000000" font-family="Verdana" font-size="13" lengthAdjust="spacing" textLength="46.1982" x="373.6597" y="285.019">yylex()</text></g><g class="message" data-participant-1="Lexer" data-participant-2="Lexer"><line style="stroke:#000000;stroke-width:1;" x1="356.6597" x2="398.6597" y1="319.5479" y2="319.5479"/><line style="stroke:#000000;stroke-width:1;" x1="398.6597" x2="398.6597" y1="319.5479" y2="332.5479"/><line style="stroke:#000000;stroke-width:1;" x1="357.6597" x2="398.6597" y1="332.5479" y2="332.5479"/><polygon fill="#000000" points="367.6597,328.5479,357.6597,332.5479,367.6597,336.5479,363.6597,332.5479" style="stroke:#000000;stroke-width:1;"/><text fill="#000000" font-family="Verdana" font-size="13" lengthAdjust="spacing" textLength="70.5034" x="363.6597" y="314.8184">Read input</text></g><g class="message" data-participant-1="Lexer" data-participant-2="Lexer"><line style="stroke:#000000;stroke-width:1;" x1="356.6597" x2="398.6597" y1="362.3472" y2="362.3472"/><line style="stroke:#000000;stroke-width:1;" x1="398.6597" x2="398.6597" y1="362.3472" y2="375.3472"/><line style="stroke:#000000;stroke-width:1;" x1="357.6597" x2="398.6597" y1="375.3472" y2="375.3472"/><polygon fill="#000000" points="367.6597,371.3472,357.6597,375.3472,367.6597,379.3472,363.6597,375.3472" style="stroke:#000000;stroke-width:1;"/><text fill="#000000" font-family="Verdana" font-size="13" lengthAdjust="spacing" textLength="91.127" x="363.6597" y="357.6177">Match pattern</text></g><g class="message" data-participant-1="Lexer" data-participant-2="Parser"><polygon fill="#000000" points="459.7866,401.1465,469.7866,405.1465,459.7866,409.1465,463.7866,405.1465" style="stroke:#000000;stroke-width:1;"/><line style="stroke:#000000;stroke-width:1;stroke-dasharray:2,2;" x1="351.6597" x2="465.7866" y1="405.1465" y2="405.1465"/><text fill="#000000" font-family="Verdana" font-size="13" lengthAdjust="spacing" textLength="85.1538" x="358.6597" y="400.417">Return token</text></g><g class="message" data-participant-1="Parser" data-participant-2="Parser"><line style="stroke:#000000;stroke-width:1;" x1="481.7866" x2="523.7866" y1="434.9458" y2="434.9458"/><line style="stroke:#000000;stroke-width:1;" x1="523.7866" x2="523.7866" y1="434.9458" y2="447.9458"/><line style="stroke:#000000;stroke-width:1;" x1="482.7866" x2="523.7866" y1="447.9458" y2="447.9458"/><polygon fill="#000000" points="492.7866,443.9458,482.7866,447.9458,492.7866,451.9458,488.7866,447.9458" style="stroke:#000000;stroke-width:1;"/><text fill="#000000" font-family="Verdana" font-size="13" lengthAdjust="spacing" textLength="130.6729" x="488.7866" y="430.2163">Apply grammar rule</text></g><path d="M25,462.9458 L89.0493,462.9458 L89.0493,470.7451 L79.0493,480.7451 L25,480.7451 L25,462.9458" fill="#FFFFFF" style="stroke:#000000;stroke-width:1;"/><rect fill="none" height="540.6943" style="stroke:#000000;stroke-width:1;" width="789.8423" x="25" y="462.9458"/><text fill="#000000" font-family="Verdana" font-size="13" font-weight="bold" lengthAdjust="spacing" textLength="19.0493" x="40" y="477.0156">alt</text><text fill="#000000" font-family="Verdana" font-size="11" font-weight="bold" lengthAdjust="spacing" textLength="82.9458" x="104.0493" y="476.0049">[Declaration]</text><g class="message" data-participant-1="Parser" data-participant-2="SymTable"><polygon fill="#000000" points="624.4595,498.5444,634.4595,502.5444,624.4595,506.5444,628.4595,502.5444" style="stroke:#000000;stroke-width:1;"/><line style="stroke:#000000;stroke-width:1;" x1="481.7866" x2="630.4595" y1="502.5444" y2="502.5444"/><text fill="#000000" font-family="Verdana" font-size="13" lengthAdjust="spacing" textLength="123.3032" x="488.7866" y="497.8149">set_symbol_type()</text></g><g class="message" data-participant-1="SymTable" data-participant-2="Vars"><polygon fill="#000000" points="757.6416,528.3438,767.6416,532.3438,757.6416,536.3438,761.6416,532.3438" style="stroke:#000000;stroke-width:1;"/><line style="stroke:#000000;stroke-width:1;" x1="646.4595" x2="763.6416" y1="532.3438" y2="532.3438"/><text fill="#000000" font-family="Verdana" font-size="13" lengthAdjust="spacing" textLength="91.5967" x="653.4595" y="527.6143">Store variable</text></g><g class="message" data-participant-1="SymTable" data-participant-2="Parser"><polygon fill="#000000" points="492.7866,558.1431,482.7866,562.1431,492.7866,566.1431,488.7866,562.1431" style="stroke:#000000;stroke-width:1;"/><line style="stroke:#000000;stroke-width:1;stroke-dasharray:2,2;" x1="486.7866" x2="640.4595" y1="562.1431" y2="562.1431"/><text fill="#000000" font-family="Verdana" font-size="13" lengthAdjust="spacing" textLength="51.9492" x="498.7866" y="557.4136">Success</text></g><line style="stroke:#000000;stroke-width:1;stroke-dasharray:2,2;" x1="25" x2="814.8423" y1="571.1431" y2="571.1431"/><text fill="#000000" font-family="Verdana" font-size="11" font-weight="bold" lengthAdjust="spacing" textLength="84.627" x="30" y="582.2021">[Assignment]</text><g class="message" data-participant-1="Parser" data-participant-2="SymTable"><polygon fill="#000000" points="624.4595,603.311,634.4595,607.311,624.4595,611.311,628.4595,607.311" style="stroke:#000000;stroke-width:1;"/><line style="stroke:#000000;stroke-width:1;" x1="481.7866" x2="630.4595" y1="607.311" y2="607.311"/><text fill="#000000" font-family="Verdana" font-size="13" lengthAdjust="spacing" textLength="85.998" x="488.7866" y="602.5815">Update value</text></g><g class="message" data-participant-1="SymTable" data-participant-2="Vars"><polygon fill="#000000" points="757.6416,633.1104,767.6416,637.1104,757.6416,641.1104,761.6416,637.1104" style="stroke:#000000;stroke-width:1;"/><line style="stroke:#000000;stroke-width:1;" x1="646.4595" x2="763.6416" y1="637.1104" y2="637.1104"/><text fill="#000000" font-family="Verdana" font-size="13" lengthAdjust="spacing" textLength="99.1821" x="653.4595" y="632.3809">Modify variable</text></g><g class="message" data-participant-1="SymTable" data-participant-2="Parser"><polygon fill="#000000" points="492.7866,662.9097,482.7866,666.9097,492.7866,670.9097,488.7866,666.9097" style="stroke:#000000;stroke-width:1;"/><line style="stroke:#000000;stroke-width:1;stroke-dasharray:2,2;" x1="486.7866" x2="640.4595" y1="666.9097" y2="666.9097"/><text fill="#000000" font-family="Verdana" font-size="13" lengthAdjust="spacing" textLength="51.9492" x="498.7866" y="662.1802">Success</text></g><line style="stroke:#000000;stroke-width:1;stroke-dasharray:2,2;" x1="25" x2="814.8423" y1="675.9097" y2="675.9097"/><text fill="#000000" font-family="Verdana" font-size="11" font-weight="bold" lengthAdjust="spacing" textLength="42.0933" x="30" y="686.9688">[Print]</text><g class="message" data-participant-1="Parser" data-participant-2="SymTable"><polygon fill="#000000" points="624.4595,708.0776,634.4595,712.0776,624.4595,716.0776,628.4595,712.0776" style="stroke:#000000;stroke-width:1;"/><line style="stroke:#000000;stroke-width:1;" x1="481.7866" x2="630.4595" y1="712.0776" y2="712.0776"/><text fill="#000000" font-family="Verdana" font-size="13" lengthAdjust="spacing" textLength="87.7056" x="488.7866" y="707.3481">get_symbol()</text></g><g class="message" data-participant-1="SymTable" data-participant-2="Vars"><polygon fill="#000000" points="757.6416,737.877,767.6416,741.877,757.6416,745.877,761.6416,741.877" style="stroke:#000000;stroke-width:1;"/><line style="stroke:#000000;stroke-width:1;" x1="646.4595" x2="763.6416" y1="741.877" y2="741.877"/><text fill="#000000" font-family="Verdana" font-size="13" lengthAdjust="spacing" textLength="93.812" x="653.4595" y="737.1475">Retrieve value</text></g><g class="message" data-participant-1="Vars" data-participant-2="SymTable"><polygon fill="#000000" points="657.4595,767.6763,647.4595,771.6763,657.4595,775.6763,653.4595,771.6763" style="stroke:#000000;stroke-width:1;"/><line style="stroke:#000000;stroke-width:1;stroke-dasharray:2,2;" x1="651.4595" x2="768.6416" y1="771.6763" y2="771.6763"/><text fill="#000000" font-family="Verdana" font-size="13" lengthAdjust="spacing" textLength="36.2324" x="663.4595" y="766.9468">Value</text></g><g class="message" data-participant-1="SymTable" data-participant-2="Parser"><polygon fill="#000000" points="492.7866,797.4756,482.7866,801.4756,492.7866,805.4756,488.7866,801.4756" style="stroke:#000000;stroke-width:1;"/><line style="stroke:#000000;stroke-width:1;stroke-dasharray:2,2;" x1="486.7866" x2="640.4595" y1="801.4756" y2="801.4756"/><text fill="#000000" font-family="Verdana" font-size="13" lengthAdjust="spacing" textLength="36.2324" x="498.7866" y="796.7461">Value</text></g><g class="message" data-participant-1="Parser" data-participant-2="User"><polygon fill="#000000" points="64.9277,827.2749,54.9277,831.2749,64.9277,835.2749,60.9277,831.2749" style="stroke:#000000;stroke-width:1;"/><line style="stroke:#000000;stroke-width:1;" x1="58.9277" x2="470.7866" y1="831.2749" y2="831.2749"/><text fill="#000000" font-family="Verdana" font-size="13" lengthAdjust="spacing" textLength="94.7832" x="70.9277" y="826.5454">Display output</text></g><line style="stroke:#000000;stroke-width:1;stroke-dasharray:2,2;" x1="25" x2="814.8423" y1="840.2749" y2="840.2749"/><text fill="#000000" font-family="Verdana" font-size="11" font-weight="bold" lengthAdjust="spacing" textLength="46.3364" x="30" y="851.334">[Input]</text><g class="message" data-participant-1="Parser" data-participant-2="User"><polygon fill="#000000" points="64.9277,872.4429,54.9277,876.4429,64.9277,880.4429,60.9277,876.4429" style="stroke:#000000;stroke-width:1;"/><line style="stroke:#000000;stroke-width:1;" x1="58.9277" x2="470.7866" y1="876.4429" y2="876.4429"/><text fill="#000000" font-family="Verdana" font-size="13" lengthAdjust="spacing" textLength="107.5356" x="70.9277" y="871.7134">Prompt for input</text></g><g class="message" data-participant-1="User" data-participant-2="Parser"><polygon fill="#000000" points="459.7866,902.2422,469.7866,906.2422,459.7866,910.2422,463.7866,906.2422" style="stroke:#000000;stroke-width:1;"/><line style="stroke:#000000;stroke-width:1;" x1="53.9277" x2="465.7866" y1="906.2422" y2="906.2422"/><text fill="#000000" font-family="Verdana" font-size="13" lengthAdjust="spacing" textLength="74.4707" x="60.9277" y="901.5127">Enter value</text></g><g class="message" data-participant-1="Parser" data-participant-2="SymTable"><polygon fill="#000000" points="624.4595,932.0415,634.4595,936.0415,624.4595,940.0415,628.4595,936.0415" style="stroke:#000000;stroke-width:1;"/><line style="stroke:#000000;stroke-width:1;" x1="481.7866" x2="630.4595" y1="936.0415" y2="936.0415"/><text fill="#000000" font-family="Verdana" font-size="13" lengthAdjust="spacing" textLength="111.5601" x="488.7866" y="931.312">set_symbol_int()</text></g><g class="message" data-participant-1="SymTable" data-participant-2="Vars"><polygon fill="#000000" points="757.6416,961.8408,767.6416,965.8408,757.6416,969.8408,761.6416,965.8408" style="stroke:#000000;stroke-width:1;"/><line style="stroke:#000000;stroke-width:1;" x1="646.4595" x2="763.6416" y1="965.8408" y2="965.8408"/><text fill="#000000" font-family="Verdana" font-size="13" lengthAdjust="spacing" textLength="74.8008" x="653.4595" y="961.1113">Store value</text></g><g class="message" data-participant-1="SymTable" data-participant-2="Parser"><polygon fill="#000000" points="492.7866,991.6401,482.7866,995.6401,492.7866,999.6401,488.7866,995.6401" style="stroke:#000000;stroke-width:1;"/><line style="stroke:#000000;stroke-width:1;stroke-dasharray:2,2;" x1="486.7866" x2="640.4595" y1="995.6401" y2="995.6401"/><text fill="#000000" font-family="Verdana" font-size="13" lengthAdjust="spacing" textLength="51.9492" x="498.7866" y="990.9106">Success</text></g><g class="message" data-participant-1="Parser" data-participant-2="Main"><polygon fill="#000000" points="179.6274,1035.4395,169.6274,1039.4395,179.6274,1043.4395,175.6274,1039.4395" style="stroke:#000000;stroke-width:1;"/><line style="stroke:#000000;stroke-width:1;stroke-dasharray:2,2;" x1="173.6274" x2="475.7866" y1="1039.4395" y2="1039.4395"/><text fill="#000000" font-family="Verdana" font-size="13" lengthAdjust="spacing" textLength="99.8677" x="185.6274" y="1034.71">Parse complete</text></g><g class="message" data-participant-1="Main" data-participant-2="User"><polygon fill="#000000" points="64.9277,1065.2388,54.9277,1069.2388,64.9277,1073.2388,60.9277,1069.2388" style="stroke:#000000;stroke-width:1;"/><line style="stroke:#000000;stroke-width:1;stroke-dasharray:2,2;" x1="58.9277" x2="162.6274" y1="1069.2388" y2="1069.2388"/><text fill="#000000" font-family="Verdana" font-size="13" lengthAdjust="spacing" textLength="24.6035" x="70.9277" y="1064.5093">Exit</text></g><!--SRC=[jLN1Rjim3BthAxYSsiFw0JaCADOM6B00GRBqLA1WR3RH8ak2H2Vntu-IQyVEidReC0CnPFA9ukEZc4-yfOh06zHMnPss7WDMiCPYjmckjkLNPro0mrOpASMQ3S5F6s0Ut2O1xuzKrAoTXGVZ3afXmG9VHGfA8h4kj4VBC9b9_0bWXBGOkxxJaSAJlJ9ql6cQc-8wux9r39nZY1af2TmmhZjeQnzZbqsrTkR9_i2reOmII_vG9SfUZ0IJHmmwcM86o5TKAgKEdx_aFAUmg2tubcgYflV8r59GwNq2peEMOmza2YVbh2X6t52FQJESGjFujBgwFWLxJLuPvpmyIEq8Yor45bz5bXN8qs9Ie5oL54UA9L6Iiu_KLYoPyce0Nn2M8DBMVD4zGvOZFJ9Ji4F48FC5SHqiiDjH2odfmi5dsNQRRxqt3QGYLXWWr292ZqR3S4U5aRPBRPHjuoYTS5E8nCyn2_lCZQVN0eoAqAlSUJf3YfGKdi9IEfHW_whz1U0WysLT5A9b3ngm_ksal20ZZNKRezxONhu_qLdvCWNQewdfGqnchjGlpN-ballwJHQRNfGFwY6j5JJjpmkHd9d0wQZ74U0Yop7aBOudBgkyyqv7cO8Dk9gxYp8knJSxj9zlbu5OUOONkS5w15oTNOPxAzViZEixpIuI_6Ellrktl-qEigLAFzMbV9g0oG0o_hmX-QyO1EX6N3iD-uhT7pKFONci_W80]--></g></svg>