<svg xmlns="http://www.w3.org/2000/svg" xmlns:xlink="http://www.w3.org/1999/xlink" contentStyleType="text/css" data-diagram-type="MINDMAP" height="905px" preserveAspectRatio="none" style="width:718px;height:905px;background:#FFFFFF;" version="1.1" viewBox="0 0 718 905" width="718px" zoomAndPan="magnify"><defs/><g><rect fill="#FFFFFF" height="37.0146" rx="12.5" ry="12.5" style="stroke:#000000;stroke-width:1;" width="184.3428" x="5" y="433.1318"/><text fill="#000000" font-family="Verdana" font-size="14" font-weight="bold" lengthAdjust="spacing" textLength="85.9551" x="15" y="457.207">Expression</text><text fill="#000000" font-family="Verdana" font-size="14" font-weight="bold" lengthAdjust="spacing" textLength="4.7852" x="100.9551" y="457.207">&#160;</text><text fill="#000000" font-family="Verdana" font-size="14" font-weight="bold" lengthAdjust="spacing" textLength="73.6025" x="105.7402" y="457.207">Grammar</text><rect fill="#FFFFFF" height="37.0146" rx="12.5" ry="12.5" style="stroke:#000000;stroke-width:1;" width="95.4482" x="229.3428" y="127.5366"/><text fill="#000000" font-family="Verdana" font-size="14" lengthAdjust="spacing" textLength="75.4482" x="239.3428" y="151.6118">expression</text><rect fill="#FFFFFF" height="37.0146" rx="12.5" ry="12.5" style="stroke:#000000;stroke-width:1;" width="192.1973" x="364.791" y="10"/><text fill="#000000" font-family="Verdana" font-size="14" lengthAdjust="spacing" textLength="75.4482" x="374.791" y="34.0752">expression</text><text fill="#000000" font-family="Verdana" font-size="14" lengthAdjust="spacing" textLength="4.9219" x="450.2393" y="34.0752">&#160;</text><text fill="#000000" font-family="Verdana" font-size="14" lengthAdjust="spacing" textLength="11.457" x="455.1611" y="34.0752">+</text><text fill="#000000" font-family="Verdana" font-size="14" lengthAdjust="spacing" textLength="4.9219" x="466.6182" y="34.0752">&#160;</text><text fill="#000000" font-family="Verdana" font-size="14" lengthAdjust="spacing" textLength="75.4482" x="471.54" y="34.0752">expression</text><path d="M324.791,146.0439 L334.791,146.0439 C349.791,146.0439 339.791,28.5073 354.791,28.5073 L364.791,28.5073" fill="none" style="stroke:#000000;stroke-width:1;"/><rect fill="#FFFFFF" height="37.0146" rx="12.5" ry="12.5" style="stroke:#000000;stroke-width:1;" width="187.0977" x="364.791" y="57.0146"/><text fill="#000000" font-family="Verdana" font-size="14" lengthAdjust="spacing" textLength="75.4482" x="374.791" y="81.0898">expression</text><text fill="#000000" font-family="Verdana" font-size="14" lengthAdjust="spacing" textLength="4.9219" x="450.2393" y="81.0898">&#160;</text><text fill="#000000" font-family="Verdana" font-size="14" lengthAdjust="spacing" textLength="6.3574" x="455.1611" y="81.0898">-</text><text fill="#000000" font-family="Verdana" font-size="14" lengthAdjust="spacing" textLength="4.9219" x="461.5186" y="81.0898">&#160;</text><text fill="#000000" font-family="Verdana" font-size="14" lengthAdjust="spacing" textLength="75.4482" x="466.4404" y="81.0898">expression</text><path d="M324.791,146.0439 L334.791,146.0439 C349.791,146.0439 339.791,75.522 354.791,75.522 L364.791,75.522" fill="none" style="stroke:#000000;stroke-width:1;"/><rect fill="#FFFFFF" height="37.0146" rx="12.5" ry="12.5" style="stroke:#000000;stroke-width:1;" width="189.6406" x="364.791" y="104.0293"/><text fill="#000000" font-family="Verdana" font-size="14" lengthAdjust="spacing" textLength="75.4482" x="374.791" y="128.1045">expression</text><text fill="#000000" font-family="Verdana" font-size="14" lengthAdjust="spacing" textLength="4.9219" x="450.2393" y="128.1045">&#160;</text><text fill="#000000" font-family="Verdana" font-size="14" lengthAdjust="spacing" textLength="8.9004" x="455.1611" y="128.1045">*</text><text fill="#000000" font-family="Verdana" font-size="14" lengthAdjust="spacing" textLength="4.9219" x="464.0615" y="128.1045">&#160;</text><text fill="#000000" font-family="Verdana" font-size="14" lengthAdjust="spacing" textLength="75.4482" x="468.9834" y="128.1045">expression</text><path d="M324.791,146.0439 L334.791,146.0439 C349.791,146.0439 339.791,122.5366 354.791,122.5366 L364.791,122.5366" fill="none" style="stroke:#000000;stroke-width:1;"/><rect fill="#FFFFFF" height="37.0146" rx="12.5" ry="12.5" style="stroke:#000000;stroke-width:1;" width="187.0977" x="364.791" y="151.0439"/><text fill="#000000" font-family="Verdana" font-size="14" lengthAdjust="spacing" textLength="75.4482" x="374.791" y="175.1191">expression</text><text fill="#000000" font-family="Verdana" font-size="14" lengthAdjust="spacing" textLength="4.9219" x="450.2393" y="175.1191">&#160;</text><text fill="#000000" font-family="Verdana" font-size="14" lengthAdjust="spacing" textLength="6.3574" x="455.1611" y="175.1191">/</text><text fill="#000000" font-family="Verdana" font-size="14" lengthAdjust="spacing" textLength="4.9219" x="461.5186" y="175.1191">&#160;</text><text fill="#000000" font-family="Verdana" font-size="14" lengthAdjust="spacing" textLength="75.4482" x="466.4404" y="175.1191">expression</text><path d="M324.791,146.0439 L334.791,146.0439 C349.791,146.0439 339.791,169.5513 354.791,169.5513 L364.791,169.5513" fill="none" style="stroke:#000000;stroke-width:1;"/><rect fill="#FFFFFF" height="37.0146" rx="12.5" ry="12.5" style="stroke:#000000;stroke-width:1;" width="108.1631" x="364.791" y="198.0586"/><text fill="#000000" font-family="Verdana" font-size="14" lengthAdjust="spacing" textLength="88.1631" x="374.791" y="222.1338">(expression)</text><path d="M324.791,146.0439 L334.791,146.0439 C349.791,146.0439 339.791,216.5659 354.791,216.5659 L364.791,216.5659" fill="none" style="stroke:#000000;stroke-width:1;"/><rect fill="#FFFFFF" height="37.0146" rx="12.5" ry="12.5" style="stroke:#000000;stroke-width:1;" width="53.4482" x="364.791" y="245.0732"/><text fill="#000000" font-family="Verdana" font-size="14" lengthAdjust="spacing" textLength="33.4482" x="374.791" y="269.1484">term</text><path d="M324.791,146.0439 L334.791,146.0439 C349.791,146.0439 339.791,263.5806 354.791,263.5806 L364.791,263.5806" fill="none" style="stroke:#000000;stroke-width:1;"/><path d="M189.3428,451.6392 L199.3428,451.6392 C214.3428,451.6392 204.3428,146.0439 219.3428,146.0439 L229.3428,146.0439" fill="none" style="stroke:#000000;stroke-width:1;"/><rect fill="#FFFFFF" height="37.0146" rx="12.5" ry="12.5" style="stroke:#000000;stroke-width:1;" width="53.4482" x="229.3428" y="433.1318"/><text fill="#000000" font-family="Verdana" font-size="14" lengthAdjust="spacing" textLength="33.4482" x="239.3428" y="457.207">term</text><rect fill="#FFFFFF" height="37.0146" rx="12.5" ry="12.5" style="stroke:#000000;stroke-width:1;" width="80.7031" x="322.791" y="315.5952"/><text fill="#000000" font-family="Verdana" font-size="14" lengthAdjust="spacing" textLength="60.7031" x="332.791" y="339.6704">NUMBER</text><rect fill="#FFFFFF" height="37.0146" rx="12.5" ry="12.5" style="stroke:#000000;stroke-width:1;" width="116.332" x="443.4941" y="292.0879"/><text fill="#000000" font-family="Verdana" font-size="14" lengthAdjust="spacing" textLength="51.6455" x="453.4941" y="316.1631">Integer</text><text fill="#000000" font-family="Verdana" font-size="14" lengthAdjust="spacing" textLength="4.9219" x="505.1396" y="316.1631">&#160;</text><text fill="#000000" font-family="Verdana" font-size="14" lengthAdjust="spacing" textLength="39.7646" x="510.0615" y="316.1631">literal</text><path d="M403.4941,334.1025 L413.4941,334.1025 C428.4941,334.1025 418.4941,310.5952 433.4941,310.5952 L443.4941,310.5952" fill="none" style="stroke:#000000;stroke-width:1;"/><rect fill="#FFFFFF" height="37.0146" rx="12.5" ry="12.5" style="stroke:#000000;stroke-width:1;" width="172.0723" x="443.4941" y="339.1025"/><text fill="#000000" font-family="Verdana" font-size="14" lengthAdjust="spacing" textLength="73.7188" x="453.4941" y="363.1777">Examples:</text><text fill="#000000" font-family="Verdana" font-size="14" lengthAdjust="spacing" textLength="4.9219" x="527.2129" y="363.1777">&#160;</text><text fill="#000000" font-family="Verdana" font-size="14" lengthAdjust="spacing" textLength="22.8936" x="532.1348" y="363.1777">42,</text><text fill="#000000" font-family="Verdana" font-size="14" lengthAdjust="spacing" textLength="4.9219" x="555.0283" y="363.1777">&#160;</text><text fill="#000000" font-family="Verdana" font-size="14" lengthAdjust="spacing" textLength="13.9932" x="559.9502" y="363.1777">0,</text><text fill="#000000" font-family="Verdana" font-size="14" lengthAdjust="spacing" textLength="4.9219" x="573.9434" y="363.1777">&#160;</text><text fill="#000000" font-family="Verdana" font-size="14" lengthAdjust="spacing" textLength="26.7012" x="578.8652" y="363.1777">100</text><path d="M403.4941,334.1025 L413.4941,334.1025 C428.4941,334.1025 418.4941,357.6099 433.4941,357.6099 L443.4941,357.6099" fill="none" style="stroke:#000000;stroke-width:1;"/><path d="M282.791,451.6392 L292.791,451.6392 C307.791,451.6392 297.791,334.1025 312.791,334.1025 L322.791,334.1025" fill="none" style="stroke:#000000;stroke-width:1;"/><rect fill="#FFFFFF" height="37.0146" rx="12.5" ry="12.5" style="stroke:#000000;stroke-width:1;" width="129.6758" x="322.791" y="409.6245"/><text fill="#000000" font-family="Verdana" font-size="14" lengthAdjust="spacing" textLength="109.6758" x="332.791" y="433.6997">FLOAT-LITERAL</text><rect fill="#FFFFFF" height="37.0146" rx="12.5" ry="12.5" style="stroke:#000000;stroke-width:1;" width="135.4248" x="492.4668" y="386.1172"/><text fill="#000000" font-family="Verdana" font-size="14" lengthAdjust="spacing" textLength="56.1299" x="502.4668" y="410.1924">Decimal</text><text fill="#000000" font-family="Verdana" font-size="14" lengthAdjust="spacing" textLength="4.9219" x="558.5967" y="410.1924">&#160;</text><text fill="#000000" font-family="Verdana" font-size="14" lengthAdjust="spacing" textLength="54.373" x="563.5186" y="410.1924">number</text><path d="M452.4668,428.1318 L462.4668,428.1318 C477.4668,428.1318 467.4668,404.6245 482.4668,404.6245 L492.4668,404.6245" fill="none" style="stroke:#000000;stroke-width:1;"/><rect fill="#FFFFFF" height="37.0146" rx="12.5" ry="12.5" style="stroke:#000000;stroke-width:1;" width="205.1514" x="492.4668" y="433.1318"/><text fill="#000000" font-family="Verdana" font-size="14" lengthAdjust="spacing" textLength="73.7188" x="502.4668" y="457.207">Examples:</text><text fill="#000000" font-family="Verdana" font-size="14" lengthAdjust="spacing" textLength="4.9219" x="576.1855" y="457.207">&#160;</text><text fill="#000000" font-family="Verdana" font-size="14" lengthAdjust="spacing" textLength="36.8867" x="581.1074" y="457.207">3.14,</text><text fill="#000000" font-family="Verdana" font-size="14" lengthAdjust="spacing" textLength="4.9219" x="617.9941" y="457.207">&#160;</text><text fill="#000000" font-family="Verdana" font-size="14" lengthAdjust="spacing" textLength="27.9863" x="622.916" y="457.207">2.5,</text><text fill="#000000" font-family="Verdana" font-size="14" lengthAdjust="spacing" textLength="4.9219" x="650.9023" y="457.207">&#160;</text><text fill="#000000" font-family="Verdana" font-size="14" lengthAdjust="spacing" textLength="31.7939" x="655.8242" y="457.207">0.01</text><path d="M452.4668,428.1318 L462.4668,428.1318 C477.4668,428.1318 467.4668,451.6392 482.4668,451.6392 L492.4668,451.6392" fill="none" style="stroke:#000000;stroke-width:1;"/><path d="M282.791,451.6392 L292.791,451.6392 C307.791,451.6392 297.791,428.1318 312.791,428.1318 L322.791,428.1318" fill="none" style="stroke:#000000;stroke-width:1;"/><rect fill="#FFFFFF" height="37.0146" rx="12.5" ry="12.5" style="stroke:#000000;stroke-width:1;" width="103.0498" x="322.791" y="503.6538"/><text fill="#000000" font-family="Verdana" font-size="14" lengthAdjust="spacing" textLength="83.0498" x="332.791" y="527.729">IDENTIFIER</text><rect fill="#FFFFFF" height="37.0146" rx="12.5" ry="12.5" style="stroke:#000000;stroke-width:1;" width="121.2539" x="465.8408" y="480.1465"/><text fill="#000000" font-family="Verdana" font-size="14" lengthAdjust="spacing" textLength="57.1074" x="475.8408" y="504.2217">Variable</text><text fill="#000000" font-family="Verdana" font-size="14" lengthAdjust="spacing" textLength="4.9219" x="532.9482" y="504.2217">&#160;</text><text fill="#000000" font-family="Verdana" font-size="14" lengthAdjust="spacing" textLength="39.2246" x="537.8701" y="504.2217">name</text><path d="M425.8408,522.1611 L435.8408,522.1611 C450.8408,522.1611 440.8408,498.6538 455.8408,498.6538 L465.8408,498.6538" fill="none" style="stroke:#000000;stroke-width:1;"/><rect fill="#FFFFFF" height="37.0146" rx="12.5" ry="12.5" style="stroke:#000000;stroke-width:1;" width="188.5059" x="465.8408" y="527.1611"/><text fill="#000000" font-family="Verdana" font-size="14" lengthAdjust="spacing" textLength="73.7188" x="475.8408" y="551.2363">Examples:</text><text fill="#000000" font-family="Verdana" font-size="14" lengthAdjust="spacing" textLength="4.9219" x="549.5596" y="551.2363">&#160;</text><text fill="#000000" font-family="Verdana" font-size="14" lengthAdjust="spacing" textLength="13.3779" x="554.4814" y="551.2363">x,</text><text fill="#000000" font-family="Verdana" font-size="14" lengthAdjust="spacing" textLength="4.9219" x="567.8594" y="551.2363">&#160;</text><text fill="#000000" font-family="Verdana" font-size="14" lengthAdjust="spacing" textLength="34.8633" x="572.7813" y="551.2363">sum,</text><text fill="#000000" font-family="Verdana" font-size="14" lengthAdjust="spacing" textLength="4.9219" x="607.6445" y="551.2363">&#160;</text><text fill="#000000" font-family="Verdana" font-size="14" lengthAdjust="spacing" textLength="31.7803" x="612.5664" y="551.2363">total</text><path d="M425.8408,522.1611 L435.8408,522.1611 C450.8408,522.1611 440.8408,545.6685 455.8408,545.6685 L465.8408,545.6685" fill="none" style="stroke:#000000;stroke-width:1;"/><path d="M282.791,451.6392 L292.791,451.6392 C307.791,451.6392 297.791,522.1611 312.791,522.1611 L322.791,522.1611" fill="none" style="stroke:#000000;stroke-width:1;"/><rect fill="#FFFFFF" height="37.0146" rx="12.5" ry="12.5" style="stroke:#000000;stroke-width:1;" width="118.2939" x="322.791" y="574.1758"/><text fill="#000000" font-family="Verdana" font-size="14" lengthAdjust="spacing" textLength="98.2939" x="332.791" y="598.251">Parenthesized</text><rect fill="#FFFFFF" height="37.0146" rx="12.5" ry="12.5" style="stroke:#000000;stroke-width:1;" width="108.1631" x="481.085" y="574.1758"/><text fill="#000000" font-family="Verdana" font-size="14" lengthAdjust="spacing" textLength="88.1631" x="491.085" y="598.251">(expression)</text><path d="M441.085,592.6831 L451.085,592.6831 C466.085,592.6831 456.085,592.6831 471.085,592.6831 L481.085,592.6831" fill="none" style="stroke:#000000;stroke-width:1;"/><path d="M282.791,451.6392 L292.791,451.6392 C307.791,451.6392 297.791,592.6831 312.791,592.6831 L322.791,592.6831" fill="none" style="stroke:#000000;stroke-width:1;"/><path d="M189.3428,451.6392 L199.3428,451.6392 C214.3428,451.6392 204.3428,451.6392 219.3428,451.6392 L229.3428,451.6392" fill="none" style="stroke:#000000;stroke-width:1;"/><rect fill="#FFFFFF" height="37.0146" rx="12.5" ry="12.5" style="stroke:#000000;stroke-width:1;" width="99.9463" x="229.3428" y="691.7124"/><text fill="#000000" font-family="Verdana" font-size="14" lengthAdjust="spacing" textLength="79.9463" x="239.3428" y="715.7876">Precedence</text><rect fill="#FFFFFF" height="37.0146" rx="12.5" ry="12.5" style="stroke:#000000;stroke-width:1;" width="136.9561" x="369.2891" y="644.6978"/><text fill="#000000" font-family="Verdana" font-size="14" lengthAdjust="spacing" textLength="36.5996" x="379.2891" y="668.7729">Level</text><text fill="#000000" font-family="Verdana" font-size="14" lengthAdjust="spacing" textLength="4.9219" x="415.8887" y="668.7729">&#160;</text><text fill="#000000" font-family="Verdana" font-size="14" lengthAdjust="spacing" textLength="8.9004" x="420.8105" y="668.7729">1</text><text fill="#000000" font-family="Verdana" font-size="14" lengthAdjust="spacing" textLength="4.9219" x="429.7109" y="668.7729">&#160;</text><text fill="#000000" font-family="Verdana" font-size="14" lengthAdjust="spacing" textLength="61.6123" x="434.6328" y="668.7729">(Lowest)</text><rect fill="#FFFFFF" height="37.0146" rx="12.5" ry="12.5" style="stroke:#000000;stroke-width:1;" width="93.9512" x="546.2451" y="621.1904"/><text fill="#000000" font-family="Verdana" font-size="14" lengthAdjust="spacing" textLength="57.5723" x="556.2451" y="645.2656">Addition</text><text fill="#000000" font-family="Verdana" font-size="14" lengthAdjust="spacing" textLength="4.9219" x="613.8174" y="645.2656">&#160;</text><text fill="#000000" font-family="Verdana" font-size="14" lengthAdjust="spacing" textLength="11.457" x="618.7393" y="645.2656">+</text><path d="M506.2451,663.2051 L516.2451,663.2051 C531.2451,663.2051 521.2451,639.6978 536.2451,639.6978 L546.2451,639.6978" fill="none" style="stroke:#000000;stroke-width:1;"/><rect fill="#FFFFFF" height="37.0146" rx="12.5" ry="12.5" style="stroke:#000000;stroke-width:1;" width="112.3398" x="546.2451" y="668.2051"/><text fill="#000000" font-family="Verdana" font-size="14" lengthAdjust="spacing" textLength="81.0605" x="556.2451" y="692.2803">Subtraction</text><text fill="#000000" font-family="Verdana" font-size="14" lengthAdjust="spacing" textLength="4.9219" x="637.3057" y="692.2803">&#160;</text><text fill="#000000" font-family="Verdana" font-size="14" lengthAdjust="spacing" textLength="6.3574" x="642.2275" y="692.2803">-</text><path d="M506.2451,663.2051 L516.2451,663.2051 C531.2451,663.2051 521.2451,686.7124 536.2451,686.7124 L546.2451,686.7124" fill="none" style="stroke:#000000;stroke-width:1;"/><path d="M329.2891,710.2197 L339.2891,710.2197 C354.2891,710.2197 344.2891,663.2051 359.2891,663.2051 L369.2891,663.2051" fill="none" style="stroke:#000000;stroke-width:1;"/><rect fill="#FFFFFF" height="37.0146" rx="12.5" ry="12.5" style="stroke:#000000;stroke-width:1;" width="141.1533" x="369.2891" y="738.7271"/><text fill="#000000" font-family="Verdana" font-size="14" lengthAdjust="spacing" textLength="36.5996" x="379.2891" y="762.8022">Level</text><text fill="#000000" font-family="Verdana" font-size="14" lengthAdjust="spacing" textLength="4.9219" x="415.8887" y="762.8022">&#160;</text><text fill="#000000" font-family="Verdana" font-size="14" lengthAdjust="spacing" textLength="8.9004" x="420.8105" y="762.8022">2</text><text fill="#000000" font-family="Verdana" font-size="14" lengthAdjust="spacing" textLength="4.9219" x="429.7109" y="762.8022">&#160;</text><text fill="#000000" font-family="Verdana" font-size="14" lengthAdjust="spacing" textLength="65.8096" x="434.6328" y="762.8022">(Highest)</text><rect fill="#FFFFFF" height="37.0146" rx="12.5" ry="12.5" style="stroke:#000000;stroke-width:1;" width="126.5039" x="550.4424" y="715.2197"/><text fill="#000000" font-family="Verdana" font-size="14" lengthAdjust="spacing" textLength="92.6816" x="560.4424" y="739.2949">Multiplication</text><text fill="#000000" font-family="Verdana" font-size="14" lengthAdjust="spacing" textLength="4.9219" x="653.124" y="739.2949">&#160;</text><text fill="#000000" font-family="Verdana" font-size="14" lengthAdjust="spacing" textLength="8.9004" x="658.0459" y="739.2949">*</text><path d="M510.4424,757.2344 L520.4424,757.2344 C535.4424,757.2344 525.4424,733.7271 540.4424,733.7271 L550.4424,733.7271" fill="none" style="stroke:#000000;stroke-width:1;"/><rect fill="#FFFFFF" height="37.0146" rx="12.5" ry="12.5" style="stroke:#000000;stroke-width:1;" width="86.5273" x="550.4424" y="762.2344"/><text fill="#000000" font-family="Verdana" font-size="14" lengthAdjust="spacing" textLength="55.248" x="560.4424" y="786.3096">Division</text><text fill="#000000" font-family="Verdana" font-size="14" lengthAdjust="spacing" textLength="4.9219" x="615.6904" y="786.3096">&#160;</text><text fill="#000000" font-family="Verdana" font-size="14" lengthAdjust="spacing" textLength="6.3574" x="620.6123" y="786.3096">/</text><path d="M510.4424,757.2344 L520.4424,757.2344 C535.4424,757.2344 525.4424,780.7417 540.4424,780.7417 L550.4424,780.7417" fill="none" style="stroke:#000000;stroke-width:1;"/><path d="M329.2891,710.2197 L339.2891,710.2197 C354.2891,710.2197 344.2891,757.2344 359.2891,757.2344 L369.2891,757.2344" fill="none" style="stroke:#000000;stroke-width:1;"/><path d="M189.3428,451.6392 L199.3428,451.6392 C214.3428,451.6392 204.3428,710.2197 219.3428,710.2197 L229.3428,710.2197" fill="none" style="stroke:#000000;stroke-width:1;"/><rect fill="#FFFFFF" height="37.0146" rx="12.5" ry="12.5" style="stroke:#000000;stroke-width:1;" width="107.4863" x="229.3428" y="832.7563"/><text fill="#000000" font-family="Verdana" font-size="14" lengthAdjust="spacing" textLength="87.4863" x="239.3428" y="856.8315">Associativity</text><rect fill="#FFFFFF" height="37.0146" rx="12.5" ry="12.5" style="stroke:#000000;stroke-width:1;" width="106.2148" x="376.8291" y="832.7563"/><text fill="#000000" font-family="Verdana" font-size="14" lengthAdjust="spacing" textLength="86.2148" x="386.8291" y="856.8315">Left-to-right</text><rect fill="#FFFFFF" height="37.0146" rx="12.5" ry="12.5" style="stroke:#000000;stroke-width:1;" width="188.0684" x="523.0439" y="809.249"/><text fill="#000000" font-family="Verdana" font-size="14" lengthAdjust="spacing" textLength="8.4082" x="533.0439" y="833.3242">a</text><text fill="#000000" font-family="Verdana" font-size="14" lengthAdjust="spacing" textLength="4.9219" x="541.4521" y="833.3242">&#160;</text><text fill="#000000" font-family="Verdana" font-size="14" lengthAdjust="spacing" textLength="11.457" x="546.374" y="833.3242">+</text><text fill="#000000" font-family="Verdana" font-size="14" lengthAdjust="spacing" textLength="4.9219" x="557.8311" y="833.3242">&#160;</text><text fill="#000000" font-family="Verdana" font-size="14" lengthAdjust="spacing" textLength="8.7227" x="562.7529" y="833.3242">b</text><text fill="#000000" font-family="Verdana" font-size="14" lengthAdjust="spacing" textLength="4.9219" x="571.4756" y="833.3242">&#160;</text><text fill="#000000" font-family="Verdana" font-size="14" lengthAdjust="spacing" textLength="11.457" x="576.3975" y="833.3242">+</text><text fill="#000000" font-family="Verdana" font-size="14" lengthAdjust="spacing" textLength="4.9219" x="587.8545" y="833.3242">&#160;</text><text fill="#000000" font-family="Verdana" font-size="14" lengthAdjust="spacing" textLength="7.2939" x="592.7764" y="833.3242">c</text><text fill="#000000" font-family="Verdana" font-size="14" lengthAdjust="spacing" textLength="4.9219" x="600.0703" y="833.3242">&#160;</text><text fill="#000000" font-family="Verdana" font-size="14" lengthAdjust="spacing" textLength="11.457" x="604.9922" y="833.3242">=</text><text fill="#000000" font-family="Verdana" font-size="14" lengthAdjust="spacing" textLength="4.9219" x="616.4492" y="833.3242">&#160;</text><text fill="#000000" font-family="Verdana" font-size="14" lengthAdjust="spacing" textLength="14.7656" x="621.3711" y="833.3242">(a</text><text fill="#000000" font-family="Verdana" font-size="14" lengthAdjust="spacing" textLength="4.9219" x="636.1367" y="833.3242">&#160;</text><text fill="#000000" font-family="Verdana" font-size="14" lengthAdjust="spacing" textLength="11.457" x="641.0586" y="833.3242">+</text><text fill="#000000" font-family="Verdana" font-size="14" lengthAdjust="spacing" textLength="4.9219" x="652.5156" y="833.3242">&#160;</text><text fill="#000000" font-family="Verdana" font-size="14" lengthAdjust="spacing" textLength="15.0801" x="657.4375" y="833.3242">b)</text><text fill="#000000" font-family="Verdana" font-size="14" lengthAdjust="spacing" textLength="4.9219" x="672.5176" y="833.3242">&#160;</text><text fill="#000000" font-family="Verdana" font-size="14" lengthAdjust="spacing" textLength="11.457" x="677.4395" y="833.3242">+</text><text fill="#000000" font-family="Verdana" font-size="14" lengthAdjust="spacing" textLength="4.9219" x="688.8965" y="833.3242">&#160;</text><text fill="#000000" font-family="Verdana" font-size="14" lengthAdjust="spacing" textLength="7.2939" x="693.8184" y="833.3242">c</text><path d="M483.0439,851.2637 L493.0439,851.2637 C508.0439,851.2637 498.0439,827.7563 513.0439,827.7563 L523.0439,827.7563" fill="none" style="stroke:#000000;stroke-width:1;"/><rect fill="#FFFFFF" height="37.0146" rx="12.5" ry="12.5" style="stroke:#000000;stroke-width:1;" width="177.8418" x="523.0439" y="856.2637"/><text fill="#000000" font-family="Verdana" font-size="14" lengthAdjust="spacing" textLength="8.4082" x="533.0439" y="880.3389">a</text><text fill="#000000" font-family="Verdana" font-size="14" lengthAdjust="spacing" textLength="4.9219" x="541.4521" y="880.3389">&#160;</text><text fill="#000000" font-family="Verdana" font-size="14" lengthAdjust="spacing" textLength="8.9004" x="546.374" y="880.3389">*</text><text fill="#000000" font-family="Verdana" font-size="14" lengthAdjust="spacing" textLength="4.9219" x="555.2744" y="880.3389">&#160;</text><text fill="#000000" font-family="Verdana" font-size="14" lengthAdjust="spacing" textLength="8.7227" x="560.1963" y="880.3389">b</text><text fill="#000000" font-family="Verdana" font-size="14" lengthAdjust="spacing" textLength="4.9219" x="568.9189" y="880.3389">&#160;</text><text fill="#000000" font-family="Verdana" font-size="14" lengthAdjust="spacing" textLength="8.9004" x="573.8408" y="880.3389">*</text><text fill="#000000" font-family="Verdana" font-size="14" lengthAdjust="spacing" textLength="4.9219" x="582.7412" y="880.3389">&#160;</text><text fill="#000000" font-family="Verdana" font-size="14" lengthAdjust="spacing" textLength="7.2939" x="587.6631" y="880.3389">c</text><text fill="#000000" font-family="Verdana" font-size="14" lengthAdjust="spacing" textLength="4.9219" x="594.957" y="880.3389">&#160;</text><text fill="#000000" font-family="Verdana" font-size="14" lengthAdjust="spacing" textLength="11.457" x="599.8789" y="880.3389">=</text><text fill="#000000" font-family="Verdana" font-size="14" lengthAdjust="spacing" textLength="4.9219" x="611.3359" y="880.3389">&#160;</text><text fill="#000000" font-family="Verdana" font-size="14" lengthAdjust="spacing" textLength="14.7656" x="616.2578" y="880.3389">(a</text><text fill="#000000" font-family="Verdana" font-size="14" lengthAdjust="spacing" textLength="4.9219" x="631.0234" y="880.3389">&#160;</text><text fill="#000000" font-family="Verdana" font-size="14" lengthAdjust="spacing" textLength="8.9004" x="635.9453" y="880.3389">*</text><text fill="#000000" font-family="Verdana" font-size="14" lengthAdjust="spacing" textLength="4.9219" x="644.8457" y="880.3389">&#160;</text><text fill="#000000" font-family="Verdana" font-size="14" lengthAdjust="spacing" textLength="15.0801" x="649.7676" y="880.3389">b)</text><text fill="#000000" font-family="Verdana" font-size="14" lengthAdjust="spacing" textLength="4.9219" x="664.8477" y="880.3389">&#160;</text><text fill="#000000" font-family="Verdana" font-size="14" lengthAdjust="spacing" textLength="8.9004" x="669.7695" y="880.3389">*</text><text fill="#000000" font-family="Verdana" font-size="14" lengthAdjust="spacing" textLength="4.9219" x="678.6699" y="880.3389">&#160;</text><text fill="#000000" font-family="Verdana" font-size="14" lengthAdjust="spacing" textLength="7.2939" x="683.5918" y="880.3389">c</text><path d="M483.0439,851.2637 L493.0439,851.2637 C508.0439,851.2637 498.0439,874.771 513.0439,874.771 L523.0439,874.771" fill="none" style="stroke:#000000;stroke-width:1;"/><path d="M336.8291,851.2637 L346.8291,851.2637 C361.8291,851.2637 351.8291,851.2637 366.8291,851.2637 L376.8291,851.2637" fill="none" style="stroke:#000000;stroke-width:1;"/><path d="M189.3428,451.6392 L199.3428,451.6392 C214.3428,451.6392 204.3428,851.2637 219.3428,851.2637 L229.3428,851.2637" fill="none" style="stroke:#000000;stroke-width:1;"/><!--SRC=[xLRVK-9847xFNz7tXXneOFNgblAi1SGLBo0bw3utIGjp9ZEvoGJrhlpVhpCX4i3LzSV3FQnLM9dkhx_qT7_JcI-9GMqY8OC8Ow2xM5EI22NhCurHXDhvnSmf8eX35DAfmk7qgFS8Wgyvw71lUkGurMefdbVb9VpwZA_-ZEyvphrDNsMrth46GpgoYTc7p3Ay77Hw5zbZ5VhIq8mqX8BT6ER6tXr6SKX92_QRDN1hq71T6tdYdRSdTQy_wLsqlHnxJBw8C0IPHbFIc_6VTXlxDMZk7Z3Dhjkm9FtZtd3IF-aNALoX5ZWD2IH6j4bmLuCaZMfWbCcpWn5gajoGHFn3GGvVstEsrP4cdmAIlkK3ZnOKGWCgdhgbnEpaKUqW4CRs9L-FqwdHw5jJlHJNXCgfcCrNWOCqD28EXOyMMrqMGYn4tXARGZj9b2yOiH3cVibsRUf6rJMJcJm6MHDJ_ldm1rJiOYTR5SugEwk5ivevUUKuNuYLcgkL5o-9T_btc9Zxa8uS0AsKWN_v0Q23_irCgrG6NHKg3RTpbe7rd2XfSjiqPD2ZRSWzWYlI0KgqnjFxcBGdv4s1JdC2Dj4cGMQRp8L_8pb7Q5ZR0FLCI3ZWnGF_0kMd4VTtcQ2FiQrnljfaSAtrmVw_vbsnZby6pWc37m8QOLYK1IxR_9Wb1ytc2v7PJwgW21tWdOZIw9i8p1m-kQv57Eujs-4aDqB6oBs2jjRgrbDXA68LbqktWZpThvN_cAwHnRdLg2t4G4cLnCY7v17RLQaMV89NM4zSKyYR7FEnu2bnpxjAL2Y24eGFen6-Y56Q4V9vaZEU5IN_cFvEisEOKMNrwYZDnNzwS-Cv1kesexZ6C2blwpAX3XaSPoK3erbXvRBv-HcpvVwUe3keryMudSXJcjygv4Ev6TbhKESltenT1zvPJ56XWpLlLsW_fA0xnspuB9NvJ2f5dm0kC11f0f_NwK9aDJvRY_TltRwaROmMqzJGInb_bs7CsoLbU8AyXU9aTU9V6Ncw6W6lZSoc7P-96njS6dbbKDzNSiHaEACrs59vJxPbArwB1Phtn7DnM4x1sndIAN_YtXG-L6yJnVdqByuv5- -MI1_MniwgkXyWvx4fIltZPsOzlj1n-qDOkX_2qliGblw7i0pVmSBJlui9vMIJLmsBdtVrdtVr_z5TVHJoFUbouC62j7rzOxVfDWzs6sxb6q_geLg0Um1kezLqM_kVOJIUGERVSIfVHnua_E7t2GAHvDzTMy4pN21SfDA8Y5fm7fCyE_wpC41FBeHMChjGEsTNWnNWj_rwHnY-dcbE1Qu6pl9Uo16-oYufBRYSdDH_TpoKivH7RGj8Edpra4RVjs1q-Xy0]--></g></svg>