<svg xmlns="http://www.w3.org/2000/svg" xmlns:xlink="http://www.w3.org/1999/xlink" contentStyleType="text/css" data-diagram-type="CLASS" height="1057px" preserveAspectRatio="none" style="width:609px;height:1057px;background:#FFFFFF;" version="1.1" viewBox="0 0 609 1057" width="609px" zoomAndPan="magnify"><title>jnr Language Grammar Structure</title><defs/><g><rect fill="#FFFFCC" height="26.6406" rx="2.5" ry="2.5" style="stroke:#FFDD88;stroke-width:3;" width="598" x="5" y="5"/><text fill="#000000" font-family="monospace" font-size="10" lengthAdjust="spacing" textLength="355.21" x="10" y="20">Please&#160;use&#160;'!option&#160;handwritten&#160;true'&#160;to&#160;enable&#160;handwritten</text><g class="title" data-source-line="5"><text fill="#000000" font-family="Verdana" font-size="22" font-weight="bold" lengthAdjust="spacing" textLength="410.2656" x="87.3672" y="73.7588">jnr Language Grammar Structure</text></g><!--cluster Non-Terminals--><g class="cluster" data-entity="Non-Terminals" data-source-line="7" data-uid="ent0002" id="cluster_Non-Terminals"><path d="M13.5,95.3779 L130.4717,95.3779 A3.75,3.75 0 0 1 132.9717,97.8779 L139.9717,118.3926 L584.5,118.3926 A2.5,2.5 0 0 1 587,120.8926 L587,860.0979 A2.5,2.5 0 0 1 584.5,862.5979 L13.5,862.5979 A2.5,2.5 0 0 1 11,860.0979 L11,97.8779 A2.5,2.5 0 0 1 13.5,95.3779" fill="#FFFFFF" style="stroke:#000000;stroke-width:1;"/><line style="stroke:#000000;stroke-width:1;" x1="11" x2="139.9717" y1="118.3926" y2="118.3926"/><text fill="#000000" font-family="Verdana" font-size="14" font-weight="bold" lengthAdjust="spacing" textLength="115.9717" x="15" y="111.4531">Non-Terminals</text></g><!--cluster Terminals--><g class="cluster" data-entity="Terminals" data-source-line="53" data-uid="ent0011" id="cluster_Terminals"><path d="M71.5,886.5979 L150.3135,886.5979 A3.75,3.75 0 0 1 152.8135,889.0979 L159.8135,909.6126 L500.5,909.6126 A2.5,2.5 0 0 1 503,912.1126 L503,1048.1579 A2.5,2.5 0 0 1 500.5,1050.6579 L71.5,1050.6579 A2.5,2.5 0 0 1 69,1048.1579 L69,889.0979 A2.5,2.5 0 0 1 71.5,886.5979" fill="#FFFFFF" style="stroke:#000000;stroke-width:1;"/><line style="stroke:#000000;stroke-width:1;" x1="69" x2="159.8135" y1="909.6126" y2="909.6126"/><text fill="#000000" font-family="Verdana" font-size="14" font-weight="bold" lengthAdjust="spacing" textLength="77.8135" x="73" y="902.6731">Terminals</text></g><!--class Program--><g class="entity" data-entity="Program" data-source-line="8" data-uid="ent0003" id="entity_Program"><rect fill="#FFFFFF" height="61.0146" rx="2.5" ry="2.5" style="stroke:#000000;stroke-width:1;" width="185.2432" x="219.38" y="131.3779"/><ellipse cx="278.4332" cy="145.3779" fill="#FFFFFF" rx="9" ry="9" style="stroke:#000000;stroke-width:1;"/><path d="M280.9064,151.521 Q280.3253,151.8198 279.6862,151.9692 Q279.047,152.1187 278.3414,152.1187 Q275.8346,152.1187 274.5148,150.4668 Q273.1949,148.8149 273.1949,145.6938 Q273.1949,142.5645 274.5148,140.9126 Q275.8346,139.2607 278.3414,139.2607 Q279.047,139.2607 279.6945,139.4102 Q280.3419,139.5596 280.9064,139.8584 L280.9064,142.5811 Q280.2755,142 279.682,141.7302 Q279.0885,141.4604 278.4576,141.4604 Q277.1129,141.4604 276.4281,142.5271 Q275.7433,143.5938 275.7433,145.6938 Q275.7433,147.7856 276.4281,148.8523 Q277.1129,149.9189 278.4576,149.9189 Q279.0885,149.9189 279.682,149.6492 Q280.2755,149.3794 280.9064,148.7983 Z " fill="#000000"/><text fill="#000000" font-family="Verdana" font-size="14" lengthAdjust="spacing" textLength="59.6367" x="295.9332" y="150.9458">Program</text><line style="stroke:#000000;stroke-width:1;" x1="220.38" x2="403.6232" y1="159.3779" y2="159.3779"/><text fill="#000000" font-family="Verdana" font-size="14" lengthAdjust="spacing" textLength="173.2432" x="225.38" y="177.4531">produces: statement-list</text><line style="stroke:#000000;stroke-width:1;" x1="220.38" x2="403.6232" y1="184.3926" y2="184.3926"/></g><!--class StatementList--><g class="entity" data-entity="StatementList" data-source-line="12" data-uid="ent0004" id="entity_StatementList"><rect fill="#FFFFFF" height="61.0146" rx="2.5" ry="2.5" style="stroke:#000000;stroke-width:1;" width="169.8486" x="227.08" y="252.3979"/><ellipse cx="259.7534" cy="266.3979" fill="#FFFFFF" rx="9" ry="9" style="stroke:#000000;stroke-width:1;"/><path d="M262.2266,272.541 Q261.6455,272.8398 261.0064,272.9892 Q260.3672,273.1387 259.6616,273.1387 Q257.1548,273.1387 255.835,271.4868 Q254.5152,269.8349 254.5152,266.7138 Q254.5152,263.5845 255.835,261.9326 Q257.1548,260.2807 259.6616,260.2807 Q260.3672,260.2807 261.0147,260.4302 Q261.6621,260.5796 262.2266,260.8784 L262.2266,263.6011 Q261.5957,263.02 261.0022,262.7502 Q260.4087,262.4804 259.7779,262.4804 Q258.4331,262.4804 257.7483,263.5471 Q257.0635,264.6138 257.0635,266.7138 Q257.0635,268.8056 257.7483,269.8723 Q258.4331,270.9389 259.7779,270.9389 Q260.4087,270.9389 261.0022,270.6692 Q261.5957,270.3994 262.2266,269.8183 Z " fill="#000000"/><text fill="#000000" font-family="Verdana" font-size="14" lengthAdjust="spacing" textLength="98.1299" x="276.1253" y="271.9658">StatementList</text><line style="stroke:#000000;stroke-width:1;" x1="228.08" x2="395.9286" y1="280.3979" y2="280.3979"/><text fill="#000000" font-family="Verdana" font-size="14" lengthAdjust="spacing" textLength="157.8486" x="233.08" y="298.4731">produces: statement+</text><line style="stroke:#000000;stroke-width:1;" x1="228.08" x2="395.9286" y1="305.4126" y2="305.4126"/></g><!--class Statement--><g class="entity" data-entity="Statement" data-source-line="16" data-uid="ent0005" id="entity_Statement"><rect fill="#FFFFFF" height="112.0586" rx="2.5" ry="2.5" style="stroke:#000000;stroke-width:1;" width="167.7363" x="228.13" y="373.4079"/><ellipse cx="271.4059" cy="387.4079" fill="#FFFFFF" rx="9" ry="9" style="stroke:#000000;stroke-width:1;"/><path d="M273.879,393.551 Q273.298,393.8498 272.6588,393.9992 Q272.0196,394.1487 271.3141,394.1487 Q268.8072,394.1487 267.4874,392.4968 Q266.1676,390.8449 266.1676,387.7238 Q266.1676,384.5945 267.4874,382.9426 Q268.8072,381.2907 271.3141,381.2907 Q272.0196,381.2907 272.6671,381.4402 Q273.3146,381.5896 273.879,381.8884 L273.879,384.6111 Q273.2482,384.03 272.6547,383.7602 Q272.0612,383.4904 271.4303,383.4904 Q270.0856,383.4904 269.4008,384.5571 Q268.7159,385.6238 268.7159,387.7238 Q268.7159,389.8156 269.4008,390.8823 Q270.0856,391.9489 271.4303,391.9489 Q272.0612,391.9489 272.6547,391.6792 Q273.2482,391.4094 273.879,390.8283 Z " fill="#000000"/><text fill="#000000" font-family="Verdana" font-size="14" lengthAdjust="spacing" textLength="73.6846" x="288.9059" y="392.9758">Statement</text><line style="stroke:#000000;stroke-width:1;" x1="229.13" x2="394.8663" y1="401.4079" y2="401.4079"/><text fill="#000000" font-family="Verdana" font-size="14" lengthAdjust="spacing" textLength="152.6875" x="234.13" y="419.4831">produces: declaration</text><text fill="#000000" font-family="Verdana" font-size="14" lengthAdjust="spacing" textLength="155.7363" x="234.13" y="436.4978">produces: assignment</text><text fill="#000000" font-family="Verdana" font-size="14" lengthAdjust="spacing" textLength="144.1904" x="234.13" y="453.5124">produces: print-func</text><text fill="#000000" font-family="Verdana" font-size="14" lengthAdjust="spacing" textLength="147.0752" x="234.13" y="470.5271">produces: input-func</text><line style="stroke:#000000;stroke-width:1;" x1="229.13" x2="394.8663" y1="477.4665" y2="477.4665"/></g><!--class Declaration--><g class="entity" data-entity="Declaration" data-source-line="23" data-uid="ent0006" id="entity_Declaration"><rect fill="#FFFFFF" height="95.0439" rx="2.5" ry="2.5" style="stroke:#000000;stroke-width:1;" width="129.1748" x="172.41" y="545.4679"/><ellipse cx="195.0428" cy="559.4679" fill="#FFFFFF" rx="9" ry="9" style="stroke:#000000;stroke-width:1;"/><path d="M197.516,565.611 Q196.9349,565.9098 196.2957,566.0592 Q195.6566,566.2087 194.951,566.2087 Q192.4442,566.2087 191.1244,564.5568 Q189.8045,562.9049 189.8045,559.7838 Q189.8045,556.6545 191.1244,555.0026 Q192.4442,553.3507 194.951,553.3507 Q195.6566,553.3507 196.304,553.5002 Q196.9515,553.6496 197.516,553.9484 L197.516,556.6711 Q196.8851,556.09 196.2916,555.8202 Q195.6981,555.5504 195.0672,555.5504 Q193.7225,555.5504 193.0377,556.6171 Q192.3529,557.6837 192.3529,559.7838 Q192.3529,561.8756 193.0377,562.9423 Q193.7225,564.0089 195.0672,564.0089 Q195.6981,564.0089 196.2916,563.7392 Q196.8851,563.4694 197.516,562.8883 Z " fill="#000000"/><text fill="#000000" font-family="Verdana" font-size="14" lengthAdjust="spacing" textLength="79.7686" x="209.1834" y="565.0358">Declaration</text><line style="stroke:#000000;stroke-width:1;" x1="173.41" x2="300.5848" y1="573.4679" y2="573.4679"/><text fill="#000000" font-family="Verdana" font-size="14" lengthAdjust="spacing" textLength="92.4424" x="178.41" y="591.5431">int ID = expr</text><text fill="#000000" font-family="Verdana" font-size="14" lengthAdjust="spacing" textLength="117.1748" x="178.41" y="608.5578">char ID = charlit</text><text fill="#000000" font-family="Verdana" font-size="14" lengthAdjust="spacing" textLength="105.4102" x="178.41" y="625.5724">float ID = expr</text><line style="stroke:#000000;stroke-width:1;" x1="173.41" x2="300.5848" y1="632.5119" y2="632.5119"/></g><!--class Assignment--><g class="entity" data-entity="Assignment" data-source-line="29" data-uid="ent0007" id="entity_Assignment"><rect fill="#FFFFFF" height="61.0146" rx="2.5" ry="2.5" style="stroke:#000000;stroke-width:1;" width="109.915" x="27.04" y="562.4779"/><ellipse cx="40.04" cy="576.4779" fill="#FFFFFF" rx="9" ry="9" style="stroke:#000000;stroke-width:1;"/><path d="M42.5131,582.621 Q41.9321,582.9198 41.2929,583.0692 Q40.6538,583.2187 39.9482,583.2187 Q37.4414,583.2187 36.1215,581.5668 Q34.8017,579.9149 34.8017,576.7938 Q34.8017,573.6645 36.1215,572.0126 Q37.4414,570.3607 39.9482,570.3607 Q40.6538,570.3607 41.3012,570.5102 Q41.9487,570.6596 42.5131,570.9584 L42.5131,573.6811 Q41.8823,573.1 41.2888,572.8302 Q40.6953,572.5604 40.0644,572.5604 Q38.7197,572.5604 38.0349,573.6271 Q37.3501,574.6937 37.3501,576.7938 Q37.3501,578.8856 38.0349,579.9523 Q38.7197,581.0189 40.0644,581.0189 Q40.6953,581.0189 41.2888,580.7492 Q41.8823,580.4794 42.5131,579.8983 Z " fill="#000000"/><text fill="#000000" font-family="Verdana" font-size="14" lengthAdjust="spacing" textLength="81.915" x="52.04" y="582.0458">Assignment</text><line style="stroke:#000000;stroke-width:1;" x1="28.04" x2="135.955" y1="590.4779" y2="590.4779"/><text fill="#000000" font-family="Verdana" font-size="14" lengthAdjust="spacing" textLength="69.3027" x="33.04" y="608.5531">ID = expr</text><line style="stroke:#000000;stroke-width:1;" x1="28.04" x2="135.955" y1="615.4926" y2="615.4926"/></g><!--class PrintFunc--><g class="entity" data-entity="PrintFunc" data-source-line="33" data-uid="ent0008" id="entity_PrintFunc"><rect fill="#FFFFFF" height="95.0439" rx="2.5" ry="2.5" style="stroke:#000000;stroke-width:1;" width="101.3662" x="336.32" y="545.4679"/><ellipse cx="352.7728" cy="559.4679" fill="#FFFFFF" rx="9" ry="9" style="stroke:#000000;stroke-width:1;"/><path d="M355.2459,565.611 Q354.6649,565.9098 354.0257,566.0592 Q353.3866,566.2087 352.681,566.2087 Q350.1742,566.2087 348.8543,564.5568 Q347.5345,562.9049 347.5345,559.7838 Q347.5345,556.6545 348.8543,555.0026 Q350.1742,553.3507 352.681,553.3507 Q353.3866,553.3507 354.034,553.5002 Q354.6815,553.6496 355.2459,553.9484 L355.2459,556.6711 Q354.6151,556.09 354.0216,555.8202 Q353.4281,555.5504 352.7972,555.5504 Q351.4525,555.5504 350.7677,556.6171 Q350.0828,557.6837 350.0828,559.7838 Q350.0828,561.8756 350.7677,562.9423 Q351.4525,564.0089 352.7972,564.0089 Q353.4281,564.0089 354.0216,563.7392 Q354.6151,563.4694 355.2459,562.8883 Z " fill="#000000"/><text fill="#000000" font-family="Verdana" font-size="14" lengthAdjust="spacing" textLength="65.6934" x="365.5401" y="565.0358">PrintFunc</text><line style="stroke:#000000;stroke-width:1;" x1="337.32" x2="436.6862" y1="573.4679" y2="573.4679"/><line style="stroke:#000000;stroke-width:1;" x1="337.32" x2="436.6862" y1="581.4679" y2="581.4679"/><text fill="#000000" font-family="Verdana" font-size="14" lengthAdjust="spacing" textLength="76.9521" x="342.32" y="599.5431">print(expr)</text><text fill="#000000" font-family="Verdana" font-size="14" lengthAdjust="spacing" textLength="89.3662" x="342.32" y="616.5578">print(charlit)</text><text fill="#000000" font-family="Verdana" font-size="14" lengthAdjust="spacing" textLength="62.3096" x="342.32" y="633.5724">print(ID)</text></g><!--class InputFunc--><g class="entity" data-entity="InputFunc" data-source-line="39" data-uid="ent0009" id="entity_InputFunc"><rect fill="#FFFFFF" height="61.0146" rx="2.5" ry="2.5" style="stroke:#000000;stroke-width:1;" width="98.9092" x="472.55" y="562.4779"/><ellipse cx="485.55" cy="576.4779" fill="#FFFFFF" rx="9" ry="9" style="stroke:#000000;stroke-width:1;"/><path d="M488.0231,582.621 Q487.4421,582.9198 486.8029,583.0692 Q486.1638,583.2187 485.4582,583.2187 Q482.9514,583.2187 481.6315,581.5668 Q480.3117,579.9149 480.3117,576.7938 Q480.3117,573.6645 481.6315,572.0126 Q482.9514,570.3607 485.4582,570.3607 Q486.1638,570.3607 486.8112,570.5102 Q487.4587,570.6596 488.0231,570.9584 L488.0231,573.6811 Q487.3923,573.1 486.7988,572.8302 Q486.2053,572.5604 485.5744,572.5604 Q484.2297,572.5604 483.5449,573.6271 Q482.8601,574.6937 482.8601,576.7938 Q482.8601,578.8856 483.5449,579.9523 Q484.2297,581.0189 485.5744,581.0189 Q486.2053,581.0189 486.7988,580.7492 Q487.3923,580.4794 488.0231,579.8983 Z " fill="#000000"/><text fill="#000000" font-family="Verdana" font-size="14" lengthAdjust="spacing" textLength="70.9092" x="497.55" y="582.0458">InputFunc</text><line style="stroke:#000000;stroke-width:1;" x1="473.55" x2="570.4592" y1="590.4779" y2="590.4779"/><line style="stroke:#000000;stroke-width:1;" x1="473.55" x2="570.4592" y1="598.4779" y2="598.4779"/><text fill="#000000" font-family="Verdana" font-size="14" lengthAdjust="spacing" textLength="65.1943" x="478.55" y="616.5531">input(ID)</text></g><!--class Expression--><g class="entity" data-entity="Expression" data-source-line="43" data-uid="ent0010" id="entity_Expression"><rect fill="#FFFFFF" height="146.0879" rx="2.5" ry="2.5" style="stroke:#000000;stroke-width:1;" width="138.6563" x="45.67" y="700.5079"/><ellipse cx="74.2829" cy="714.5079" fill="#FFFFFF" rx="9" ry="9" style="stroke:#000000;stroke-width:1;"/><path d="M76.756,720.651 Q76.175,720.9498 75.5358,721.0992 Q74.8967,721.2487 74.1911,721.2487 Q71.6843,721.2487 70.3644,719.5968 Q69.0446,717.9449 69.0446,714.8238 Q69.0446,711.6945 70.3644,710.0426 Q71.6843,708.3907 74.1911,708.3907 Q74.8967,708.3907 75.5441,708.5402 Q76.1916,708.6896 76.756,708.9884 L76.756,711.7111 Q76.1252,711.13 75.5317,710.8602 Q74.9382,710.5904 74.3073,710.5904 Q72.9626,710.5904 72.2778,711.6571 Q71.5929,712.7238 71.5929,714.8238 Q71.5929,716.9156 72.2778,717.9823 Q72.9626,719.0489 74.3073,719.0489 Q74.9382,719.0489 75.5317,718.7792 Q76.1252,718.5094 76.756,717.9283 Z " fill="#000000"/><text fill="#000000" font-family="Verdana" font-size="14" lengthAdjust="spacing" textLength="75.9609" x="89.7524" y="720.0758">Expression</text><line style="stroke:#000000;stroke-width:1;" x1="46.67" x2="183.3263" y1="728.5079" y2="728.5079"/><text fill="#000000" font-family="Verdana" font-size="14" lengthAdjust="spacing" textLength="83.9453" x="51.67" y="746.5831">expr + expr</text><text fill="#000000" font-family="Verdana" font-size="14" lengthAdjust="spacing" textLength="78.8457" x="51.67" y="763.5978">expr - expr</text><text fill="#000000" font-family="Verdana" font-size="14" lengthAdjust="spacing" textLength="81.3887" x="51.67" y="780.6124">expr * expr</text><text fill="#000000" font-family="Verdana" font-size="14" lengthAdjust="spacing" textLength="78.8457" x="51.67" y="797.6271">expr / expr</text><text fill="#000000" font-family="Verdana" font-size="14" lengthAdjust="spacing" textLength="126.6563" x="51.67" y="814.6417">NUM | FLOAT | ID</text><line style="stroke:#000000;stroke-width:1;" x1="46.67" x2="183.3263" y1="821.5812" y2="821.5812"/><text fill="#000000" font-family="Verdana" font-size="14" lengthAdjust="spacing" textLength="44.0371" x="51.67" y="839.6564">(expr)</text></g><!--class Keywords--><g class="entity" data-entity="Keywords" data-source-line="54" data-uid="ent0012" id="entity_Keywords"><rect fill="#FFFFFF" height="78.0293" rx="2.5" ry="2.5" style="stroke:#000000;stroke-width:1;" width="111.9688" x="375.02" y="939.6179"/><ellipse cx="395.0842" cy="953.6179" fill="#FFFFFF" rx="9" ry="9" style="stroke:#000000;stroke-width:1;"/><path d="M397.5574,959.761 Q396.9763,960.0598 396.3371,960.2092 Q395.698,960.3587 394.9924,960.3587 Q392.4856,960.3587 391.1658,958.7068 Q389.8459,957.0549 389.8459,953.9338 Q389.8459,950.8045 391.1658,949.1526 Q392.4856,947.5007 394.9924,947.5007 Q395.698,947.5007 396.3454,947.6502 Q396.9929,947.7996 397.5574,948.0984 L397.5574,950.8211 Q396.9265,950.24 396.333,949.9702 Q395.7395,949.7004 395.1086,949.7004 Q393.7639,949.7004 393.0791,950.7671 Q392.3943,951.8338 392.3943,953.9338 Q392.3943,956.0256 393.0791,957.0923 Q393.7639,958.1589 395.1086,958.1589 Q395.7395,958.1589 396.333,957.8892 Q396.9265,957.6194 397.5574,957.0383 Z " fill="#000000"/><text fill="#000000" font-family="Verdana" font-size="14" lengthAdjust="spacing" textLength="68.2705" x="408.654" y="959.1858">Keywords</text><line style="stroke:#000000;stroke-width:1;" x1="376.02" x2="485.9888" y1="967.6179" y2="967.6179"/><text fill="#000000" font-family="Verdana" font-size="14" lengthAdjust="spacing" textLength="99.9688" x="381.02" y="985.6931">int, char, float</text><text fill="#000000" font-family="Verdana" font-size="14" lengthAdjust="spacing" textLength="78.7295" x="381.02" y="1002.7078">print, input</text><line style="stroke:#000000;stroke-width:1;" x1="376.02" x2="485.9888" y1="1009.6472" y2="1009.6472"/></g><!--class Operators--><g class="entity" data-entity="Operators" data-source-line="59" data-uid="ent0013" id="entity_Operators"><rect fill="#FFFFFF" height="82.8906" rx="2.5" ry="2.5" style="stroke:#000000;stroke-width:1;" width="97.7471" x="85.13" y="937.1879"/><ellipse cx="98.13" cy="951.1879" fill="#FFFFFF" rx="9" ry="9" style="stroke:#000000;stroke-width:1;"/><path d="M100.6031,957.331 Q100.0221,957.6298 99.3829,957.7792 Q98.7438,957.9287 98.0382,957.9287 Q95.5314,957.9287 94.2115,956.2768 Q92.8917,954.6249 92.8917,951.5038 Q92.8917,948.3745 94.2115,946.7226 Q95.5314,945.0707 98.0382,945.0707 Q98.7438,945.0707 99.3912,945.2202 Q100.0387,945.3696 100.6031,945.6684 L100.6031,948.3911 Q99.9723,947.81 99.3788,947.5402 Q98.7853,947.2704 98.1544,947.2704 Q96.8097,947.2704 96.1249,948.3371 Q95.4401,949.4038 95.4401,951.5038 Q95.4401,953.5956 96.1249,954.6623 Q96.8097,955.7289 98.1544,955.7289 Q98.7853,955.7289 99.3788,955.4592 Q99.9723,955.1894 100.6031,954.6083 Z " fill="#000000"/><text fill="#000000" font-family="Verdana" font-size="14" lengthAdjust="spacing" textLength="69.7471" x="110.13" y="956.7558">Operators</text><line style="stroke:#000000;stroke-width:1;" x1="86.13" x2="181.8771" y1="965.1879" y2="965.1879"/><ellipse cx="96.13" cy="979.1953" fill="none" rx="3" ry="3" style="stroke:#000000;stroke-width:1;"/><text fill="#000000" font-family="Verdana" font-size="14" lengthAdjust="spacing" textLength="51.6592" x="103.13" y="983.2631">, -, *, /</text><line style="stroke:#000000;stroke-width:1;" x1="86.13" x2="181.8771" y1="990.2026" y2="990.2026"/><text fill="#000000" font-family="Verdana" font-size="18" font-weight="bold" lengthAdjust="spacing" textLength="44.877" x="91.13" y="1012.2993">, (, )</text></g><!--class Literals--><g class="entity" data-entity="Literals" data-source-line="64" data-uid="ent0014" id="entity_Literals"><rect fill="#FFFFFF" height="112.0586" rx="2.5" ry="2.5" style="stroke:#000000;stroke-width:1;" width="121.6758" x="218.16" y="922.5979"/><ellipse cx="250.3597" cy="936.5979" fill="#FFFFFF" rx="9" ry="9" style="stroke:#000000;stroke-width:1;"/><path d="M252.8329,942.741 Q252.2518,943.0398 251.6126,943.1892 Q250.9735,943.3387 250.2679,943.3387 Q247.7611,943.3387 246.4413,941.6868 Q245.1214,940.0349 245.1214,936.9138 Q245.1214,933.7845 246.4413,932.1326 Q247.7611,930.4807 250.2679,930.4807 Q250.9735,930.4807 251.6209,930.6302 Q252.2684,930.7796 252.8329,931.0784 L252.8329,933.8011 Q252.202,933.22 251.6085,932.9502 Q251.015,932.6804 250.3841,932.6804 Q249.0394,932.6804 248.3546,933.7471 Q247.6698,934.8138 247.6698,936.9138 Q247.6698,939.0056 248.3546,940.0723 Q249.0394,941.1389 250.3841,941.1389 Q251.015,941.1389 251.6085,940.8692 Q252.202,940.5994 252.8329,940.0183 Z " fill="#000000"/><text fill="#000000" font-family="Verdana" font-size="14" lengthAdjust="spacing" textLength="51.0098" x="266.6263" y="942.1658">Literals</text><line style="stroke:#000000;stroke-width:1;" x1="219.16" x2="338.8358" y1="950.5979" y2="950.5979"/><text fill="#000000" font-family="Verdana" font-size="14" lengthAdjust="spacing" textLength="60.7031" x="224.16" y="968.6731">NUMBER</text><text fill="#000000" font-family="Verdana" font-size="14" lengthAdjust="spacing" textLength="109.6758" x="224.16" y="985.6878">FLOAT-LITERAL</text><text fill="#000000" font-family="Verdana" font-size="14" lengthAdjust="spacing" textLength="104.2207" x="224.16" y="1002.7024">CHAR-LITERAL</text><text fill="#000000" font-family="Verdana" font-size="14" lengthAdjust="spacing" textLength="83.0498" x="224.16" y="1019.7171">IDENTIFIER</text><line style="stroke:#000000;stroke-width:1;" x1="219.16" x2="338.8358" y1="1026.6565" y2="1026.6565"/></g><!--link Program to StatementList--><g class="link" data-entity-1="Program" data-entity-2="StatementList" data-source-line="72" data-uid="lnk15" id="link_Program_StatementList"><path codeLine="72" d="M312,192.6079 C312,210.7879 312,227.9579 312,246.1379" fill="none" id="Program-to-StatementList" style="stroke:#000000;stroke-width:1;"/><polygon fill="#000000" points="312,252.1379,316,243.1379,312,247.1379,308,243.1379,312,252.1379" style="stroke:#000000;stroke-width:1;"/></g><!--link StatementList to Statement--><g class="link" data-entity-1="StatementList" data-entity-2="Statement" data-source-line="73" data-uid="lnk16" id="link_StatementList_Statement"><path codeLine="73" d="M312,313.8479 C312,330.9679 312,346.9679 312,367.1179" fill="none" id="StatementList-to-Statement" style="stroke:#000000;stroke-width:1;"/><polygon fill="#000000" points="312,373.1179,316,364.1179,312,368.1179,308,364.1179,312,373.1179" style="stroke:#000000;stroke-width:1;"/></g><!--link Statement to Declaration--><g class="link" data-entity-1="Statement" data-entity-2="Declaration" data-source-line="74" data-uid="lnk17" id="link_Statement_Declaration"><path codeLine="74" d="M286.4,485.5879 C277.4,504.9579 269.9168,521.0959 261.2668,539.7259" fill="none" id="Statement-to-Declaration" style="stroke:#000000;stroke-width:1;"/><polygon fill="#000000" points="258.74,545.1679,266.1581,538.6894,260.8456,540.6329,258.9021,535.3204,258.74,545.1679" style="stroke:#000000;stroke-width:1;"/></g><!--link Statement to Assignment--><g class="link" data-entity-1="Statement" data-entity-2="Assignment" data-source-line="75" data-uid="lnk18" id="link_Statement_Assignment"><path codeLine="75" d="M233.17,485.8079 C196.76,511.3879 159.8693,537.2885 129.4693,558.6485" fill="none" id="Statement-to-Assignment" style="stroke:#000000;stroke-width:1;"/><polygon fill="#000000" points="124.56,562.0979,134.2236,560.1966,128.6511,559.2234,129.6243,553.6509,124.56,562.0979" style="stroke:#000000;stroke-width:1;"/></g><!--link Statement to PrintFunc--><g class="link" data-entity-1="Statement" data-entity-2="PrintFunc" data-source-line="76" data-uid="lnk19" id="link_Statement_PrintFunc"><path codeLine="76" d="M337.6,485.5879 C346.6,504.9579 354.0832,521.0959 362.7332,539.7259" fill="none" id="Statement-to-PrintFunc" style="stroke:#000000;stroke-width:1;"/><polygon fill="#000000" points="365.26,545.1679,365.0979,535.3204,363.1544,540.6329,357.8419,538.6894,365.26,545.1679" style="stroke:#000000;stroke-width:1;"/></g><!--link Statement to InputFunc--><g class="link" data-entity-1="Statement" data-entity-2="InputFunc" data-source-line="77" data-uid="lnk20" id="link_Statement_InputFunc"><path codeLine="77" d="M383.98,485.8079 C417.22,511.3879 450.6248,537.079 478.3848,558.439" fill="none" id="Statement-to-InputFunc" style="stroke:#000000;stroke-width:1;"/><polygon fill="#000000" points="483.14,562.0979,478.4464,553.4394,479.1773,559.0488,473.5679,559.7797,483.14,562.0979" style="stroke:#000000;stroke-width:1;"/></g><!--link Declaration to Expression--><g class="link" data-entity-1="Declaration" data-entity-2="Expression" data-source-line="78" data-uid="lnk21" id="link_Declaration_Expression"><path codeLine="78" d="M204.95,640.9079 C192.59,658.9879 181.553,675.1326 167.933,695.0826" fill="none" id="Declaration-to-Expression" style="stroke:#000000;stroke-width:1;"/><polygon fill="#000000" points="164.55,700.0379,172.9281,694.8603,167.3692,695.9085,166.321,690.3496,164.55,700.0379" style="stroke:#000000;stroke-width:1;"/></g><!--link Declaration to Literals--><g class="link" data-entity-1="Declaration" data-entity-2="Literals" data-source-line="79" data-uid="lnk22" id="link_Declaration_Literals"><path codeLine="79" d="M242.11,640.6479 C249.88,711.6379 263.987,840.5436 272.287,916.3536" fill="none" id="Declaration-to-Literals" style="stroke:#000000;stroke-width:1;"/><polygon fill="#000000" points="272.94,922.3179,275.9367,912.9361,272.3958,917.3476,267.9843,913.8067,272.94,922.3179" style="stroke:#000000;stroke-width:1;"/></g><!--link Assignment to Expression--><g class="link" data-entity-1="Assignment" data-entity-2="Expression" data-source-line="80" data-uid="lnk23" id="link_Assignment_Expression"><path codeLine="80" d="M87.52,623.8779 C91.38,644.7279 95.5994,667.5879 100.5294,694.2579" fill="none" id="Assignment-to-Expression" style="stroke:#000000;stroke-width:1;"/><polygon fill="#000000" points="101.62,700.1579,103.9174,690.5808,100.7111,695.2412,96.0507,692.035,101.62,700.1579" style="stroke:#000000;stroke-width:1;"/></g><!--link PrintFunc to Expression--><g class="link" data-entity-1="PrintFunc" data-entity-2="Expression" data-source-line="81" data-uid="lnk24" id="link_PrintFunc_Expression"><path codeLine="81" d="M335.86,629.1879 C330.18,633.0279 324.48,636.8679 319,640.5079 C274.57,670.0779 229.2885,699.4256 189.7385,724.8256" fill="none" id="PrintFunc-to-Expression" style="stroke:#000000;stroke-width:1;"/><polygon fill="#000000" points="184.69,728.0679,194.4243,726.5702,188.8971,725.366,190.1013,719.8388,184.69,728.0679" style="stroke:#000000;stroke-width:1;"/></g><!--link PrintFunc to Literals--><g class="link" data-entity-1="PrintFunc" data-entity-2="Literals" data-source-line="82" data-uid="lnk25" id="link_PrintFunc_Literals"><path codeLine="82" d="M373.87,640.6479 C353.88,711.6379 317.5358,840.7324 296.1958,916.5424" fill="none" id="PrintFunc-to-Literals" style="stroke:#000000;stroke-width:1;"/><polygon fill="#000000" points="294.57,922.3179,300.859,914.7385,295.9248,917.505,293.1583,912.5708,294.57,922.3179" style="stroke:#000000;stroke-width:1;"/></g><!--link InputFunc to Literals--><g class="link" data-entity-1="InputFunc" data-entity-2="Literals" data-source-line="83" data-uid="lnk26" id="link_InputFunc_Literals"><path codeLine="83" d="M505.9,623.7079 C477.75,675.0779 417.06,783.3579 359,870.5979 C347.56,887.7879 338.01,901.1579 325.71,917.5579" fill="none" id="InputFunc-to-Literals" style="stroke:#000000;stroke-width:1;"/><polygon fill="#000000" points="322.11,922.3579,330.71,917.5579,325.11,918.3579,324.31,912.7579,322.11,922.3579" style="stroke:#000000;stroke-width:1;"/></g><!--link Expression to Literals--><g class="link" data-entity-1="Expression" data-entity-2="Literals" data-source-line="84" data-uid="lnk27" id="link_Expression_Literals"><path codeLine="84" d="M174.32,846.9479 C182.96,857.5479 191.72,868.3479 200,878.5979 C211.4,892.7179 219.9074,903.3282 231.2874,917.5882" fill="none" id="Expression-to-Literals" style="stroke:#000000;stroke-width:1;"/><polygon fill="#000000" points="235.03,922.2779,232.5426,912.7483,231.9112,918.3698,226.2897,917.7384,235.03,922.2779" style="stroke:#000000;stroke-width:1;"/></g><!--link Expression to Operators--><g class="link" data-entity-1="Expression" data-entity-2="Operators" data-source-line="85" data-uid="lnk28" id="link_Expression_Operators"><path codeLine="85" d="M121.78,847.0079 C124.6,877.1979 127.2223,905.1539 129.6223,930.8639" fill="none" id="Expression-to-Operators" style="stroke:#000000;stroke-width:1;"/><polygon fill="#000000" points="130.18,936.8379,133.3262,927.5051,129.7153,931.8596,125.3608,928.2487,130.18,936.8379" style="stroke:#000000;stroke-width:1;"/></g><!--link Declaration to Keywords--><g class="link" data-entity-1="Declaration" data-entity-2="Keywords" data-source-line="86" data-uid="lnk29" id="link_Declaration_Keywords"><path codeLine="86" d="M260.59,640.6479 C299.37,717.3279 373.1332,863.1832 408.9332,934.0032" fill="none" id="Declaration-to-Keywords" style="stroke:#000000;stroke-width:1;"/><polygon fill="#000000" points="411.64,939.3579,411.1495,929.5213,409.3843,934.8957,404.0099,933.1304,411.64,939.3579" style="stroke:#000000;stroke-width:1;"/></g><!--link PrintFunc to Keywords--><g class="link" data-entity-1="PrintFunc" data-entity-2="Keywords" data-source-line="87" data-uid="lnk30" id="link_PrintFunc_Keywords"><path codeLine="87" d="M395.68,640.8079 C398.92,659.3479 402.43,680.8879 405,700.5079 C416.16,785.5579 423.8963,879.9044 427.8663,933.4444" fill="none" id="PrintFunc-to-Keywords" style="stroke:#000000;stroke-width:1;"/><polygon fill="#000000" points="428.31,939.4279,431.6335,930.1568,427.9403,934.4416,423.6554,930.7484,428.31,939.4279" style="stroke:#000000;stroke-width:1;"/></g><!--link InputFunc to Keywords--><g class="link" data-entity-1="InputFunc" data-entity-2="Keywords" data-source-line="88" data-uid="lnk31" id="link_InputFunc_Keywords"><path codeLine="88" d="M533.75,623.7579 C552.51,676.1379 583.56,787.1179 547,870.5979 C534.52,899.0879 515.0242,919.6462 491.9342,937.8262" fill="none" id="InputFunc-to-Keywords" style="stroke:#000000;stroke-width:1;"/><polygon fill="#000000" points="487.22,941.5379,496.7657,939.1131,491.1485,938.4448,491.8168,932.8276,487.22,941.5379" style="stroke:#000000;stroke-width:1;"/></g><!--SRC=[VLFRJkCm47tFLypo13GHxqWW5TBkHcGBAkK3l8cRUadjo77KHS2_xzXjV2lbeMhc7C_CcV7n3xMXMmfTInXF-bV6EoB95lwGwhMHOk3rlMY5XDs6AUhn6yBhdMHAKGvhqlOqIHHJBOM_N499U3EGXi9FFBeb4fwL72erI3pLOM5DdIq4prPKRXd7z3DuJm2gblGzF4dHw1OQ0UYag8UAzjVGAw9GAbTPotg5v2V-RDRpo9P8diwTdCmxogafdf14CS4Z1lDOmtLIH7IIeRprmAk8mBKDbWZwvwxBGG6MW2A76w3_EccGQeCxD93-Qjc-xReL93mP59vQaOUw9qy-QTLpr6PNWF6vFddXnOVMFbJa5t6jGW_grJA3VtLmXkKfIhHZwtumSKERE8lYooY-Sh4dUF7o6pvWNZvEL_XVvARtf-UzBtttGDzsGjQzkuRKx3lTRzhDdUwdYYTwx2ZUev1ZWKaAMGgNALoPy2Q5ynIEzb3YkvAev924qkzcI_Dfz6TbiPejfwL1xdzDbm5GvBF5gfWN9iECE3wUBBiDdqGIFf20Tvp1FKj6ZFDKH5WBHRYrG-BxN3Fk_e-eSIM9P-4enLdsMy9MShOCOC-4t-7sPe-aZfw9-beux6lX_m00]--></g></svg>