<svg xmlns="http://www.w3.org/2000/svg" xmlns:xlink="http://www.w3.org/1999/xlink" contentStyleType="text/css" data-diagram-type="DESCRIPTION" height="674px" preserveAspectRatio="none" style="width:408px;height:674px;background:#FFFFFF;" version="1.1" viewBox="0 0 408 674" width="408px" zoomAndPan="magnify"><title>Parse Tree: int x = 10</title><defs/><g><g class="title" data-source-line="4"><text fill="#000000" font-family="Verdana" font-size="22" font-weight="bold" lengthAdjust="spacing" textLength="269.3066" x="65.0216" y="37.1182">Parse Tree: int x = 10</text></g><!--entity program--><g class="entity" data-entity="program" data-source-line="6" data-uid="ent0002" id="entity_program"><ellipse cx="186.9977" cy="73.7685" fill="#FFFFFF" rx="45.3677" ry="15.0312" style="stroke:#000000;stroke-width:1;"/><text fill="#000000" font-family="Verdana" font-size="14" lengthAdjust="spacing" textLength="59.917" x="157.0392" y="78.7758">program</text></g><!--entity statement-list--><g class="entity" data-entity="statement-list" data-source-line="6" data-uid="ent0003" id="entity_statement-list"><ellipse cx="186.9955" cy="164.7944" fill="#FFFFFF" rx="67.9855" ry="15.9971" style="stroke:#000000;stroke-width:1;"/><text fill="#000000" font-family="Verdana" font-size="14" lengthAdjust="spacing" textLength="98.2598" x="137.8656" y="169.8017">statement-list</text></g><!--entity statement--><g class="entity" data-entity="statement" data-source-line="7" data-uid="ent0005" id="entity_statement"><ellipse cx="187.0032" cy="255.8285" fill="#FFFFFF" rx="53.4932" ry="15.0312" style="stroke:#000000;stroke-width:1;"/><text fill="#000000" font-family="Verdana" font-size="14" lengthAdjust="spacing" textLength="71.4082" x="151.2991" y="260.8358">statement</text></g><!--entity declaration--><g class="entity" data-entity="declaration" data-source-line="8" data-uid="ent0007" id="entity_declaration"><ellipse cx="186.9951" cy="345.8885" fill="#FFFFFF" rx="57.9451" ry="15.0312" style="stroke:#000000;stroke-width:1;"/><text fill="#000000" font-family="Verdana" font-size="14" lengthAdjust="spacing" textLength="77.7041" x="148.143" y="350.8958">declaration</text></g><!--entity int--><g class="entity" data-entity="int" data-source-line="9" data-uid="ent0009" id="entity_int"><ellipse cx="28.002" cy="445.2089" fill="#FFFFFF" rx="17.002" ry="14.2016" style="stroke:#000000;stroke-width:1;"/><text fill="#000000" font-family="Verdana" font-size="14" lengthAdjust="spacing" textLength="18.2178" x="18.8932" y="450.2163">int</text></g><!--entity IDENTIFIER\nx--><g class="entity" data-entity="IDENTIFIER.nx" data-source-line="10" data-uid="ent0011" id="entity_IDENTIFIER.nx"><ellipse cx="134.9982" cy="445.211" fill="#FFFFFF" rx="54.9682" ry="24.2937" style="stroke:#000000;stroke-width:1;"/><text fill="#000000" font-family="Verdana" font-size="14" lengthAdjust="spacing" textLength="83.0498" x="93.4733" y="445.9224">IDENTIFIER</text><text fill="#000000" font-family="Verdana" font-size="14" lengthAdjust="spacing" textLength="8.2852" x="130.8556" y="462.937">x</text></g><!--entity =--><g class="entity" data-entity="." data-source-line="11" data-uid="ent0013" id="entity_."><ellipse cx="239.999" cy="445.2105" fill="#FFFFFF" rx="15.079" ry="12.6632" style="stroke:#000000;stroke-width:1;"/><text fill="#000000" font-family="Verdana" font-size="14" lengthAdjust="spacing" textLength="11.457" x="234.2704" y="450.2178">=</text></g><!--entity expression--><g class="entity" data-entity="expression" data-source-line="12" data-uid="ent0015" id="entity_expression"><ellipse cx="346" cy="445.2085" fill="#FFFFFF" rx="56.35" ry="15.0312" style="stroke:#000000;stroke-width:1;"/><text fill="#000000" font-family="Verdana" font-size="14" lengthAdjust="spacing" textLength="75.4482" x="308.2758" y="450.2158">expression</text></g><!--entity term--><g class="entity" data-entity="term" data-source-line="13" data-uid="ent0017" id="entity_term"><ellipse cx="346.0015" cy="544.5385" fill="#FFFFFF" rx="26.6515" ry="15.0312" style="stroke:#000000;stroke-width:1;"/><text fill="#000000" font-family="Verdana" font-size="14" lengthAdjust="spacing" textLength="33.4482" x="329.2774" y="549.5458">term</text></g><!--entity NUMBER\n10--><g class="entity" data-entity="NUMBER.n10" data-source-line="14" data-uid="ent0019" id="entity_NUMBER.n10"><ellipse cx="346.0045" cy="644.0571" fill="#FFFFFF" rx="41.3345" ry="24.4898" style="stroke:#000000;stroke-width:1;"/><text fill="#000000" font-family="Verdana" font-size="14" lengthAdjust="spacing" textLength="60.7031" x="315.6529" y="644.445">NUMBER</text><text fill="#000000" font-family="Verdana" font-size="14" lengthAdjust="spacing" textLength="17.8008" x="337.1041" y="661.4596">10</text></g><!--link program to statement-list--><g class="link" data-entity-1="program" data-entity-2="statement-list" data-source-line="6" data-uid="lnk4" id="link_program_statement-list"><path d="M187,89.0673 C187,105.2873 187,125.6473 187,142.3273" fill="none" id="program-to-statement-list" style="stroke:#000000;stroke-width:1;"/><polygon fill="#000000" points="187,148.3273,191,139.3273,187,143.3273,183,139.3273,187,148.3273" style="stroke:#000000;stroke-width:1;"/></g><!--link statement-list to statement--><g class="link" data-entity-1="statement-list" data-entity-2="statement" data-source-line="7" data-uid="lnk6" id="link_statement-list_statement"><path d="M187,180.8973 C187,197.5673 187,218.1973 187,234.5373" fill="none" id="statement-list-to-statement" style="stroke:#000000;stroke-width:1;"/><polygon fill="#000000" points="187,240.5373,191,231.5373,187,235.5373,183,231.5373,187,240.5373" style="stroke:#000000;stroke-width:1;"/></g><!--link statement to declaration--><g class="link" data-entity-1="statement" data-entity-2="declaration" data-source-line="8" data-uid="lnk8" id="link_statement_declaration"><path d="M187,270.9773 C187,287.3073 187,308.0373 187,324.4773" fill="none" id="statement-to-declaration" style="stroke:#000000;stroke-width:1;"/><polygon fill="#000000" points="187,330.4773,191,321.4773,187,325.4773,183,321.4773,187,330.4773" style="stroke:#000000;stroke-width:1;"/></g><!--link declaration to int--><g class="link" data-entity-1="declaration" data-entity-2="int" data-source-line="9" data-uid="lnk10" id="link_declaration_int"><path d="M164.4,359.9373 C139.39,374.4773 97.99,398.8473 63,420.9173 C55.59,425.5873 52.4148,427.6429 45.8448,432.0729" fill="none" id="declaration-to-int" style="stroke:#000000;stroke-width:1;"/><polygon fill="#000000" points="40.87,435.4273,50.5684,433.7123,45.0156,432.632,46.0959,427.0792,40.87,435.4273" style="stroke:#000000;stroke-width:1;"/></g><!--link declaration to IDENTIFIER\nx--><g class="link" data-entity-1="declaration" data-entity-2="IDENTIFIER.nx" data-source-line="10" data-uid="lnk12" id="link_declaration_IDENTIFIER.nx"><path d="M179.33,361.2473 C170.91,377.0073 160.1081,397.2356 150.1781,415.8156" fill="none" id="declaration-to-IDENTIFIER\nx" style="stroke:#000000;stroke-width:1;"/><polygon fill="#000000" points="147.35,421.1073,155.1199,415.0552,149.7068,416.6976,148.0644,411.2844,147.35,421.1073" style="stroke:#000000;stroke-width:1;"/></g><!--link declaration to =--><g class="link" data-entity-1="declaration" data-entity-2="." data-source-line="11" data-uid="lnk14" id="link_declaration_."><path d="M194.82,361.2473 C205.48,380.8073 221.4613,410.1575 231.0913,427.8475" fill="none" id="declaration-to-=" style="stroke:#000000;stroke-width:1;"/><polygon fill="#000000" points="233.96,433.1173,233.1701,423.3002,231.5694,428.7258,226.1437,427.1251,233.96,433.1173" style="stroke:#000000;stroke-width:1;"/></g><!--link declaration to expression--><g class="link" data-entity-1="declaration" data-entity-2="expression" data-source-line="12" data-uid="lnk16" id="link_declaration_expression"><path d="M208.78,360.2173 C239.14,378.7973 288.7623,409.1753 319.1223,427.7553" fill="none" id="declaration-to-expression" style="stroke:#000000;stroke-width:1;"/><polygon fill="#000000" points="324.24,430.8873,318.6514,422.7776,319.9753,428.2773,314.4755,429.6011,324.24,430.8873" style="stroke:#000000;stroke-width:1;"/></g><!--link expression to term--><g class="link" data-entity-1="expression" data-entity-2="term" data-source-line="13" data-uid="lnk18" id="link_expression_term"><path d="M346,460.5773 C346,478.9773 346,504.6873 346,523.1173" fill="none" id="expression-to-term" style="stroke:#000000;stroke-width:1;"/><polygon fill="#000000" points="346,529.1173,350,520.1173,346,524.1173,342,520.1173,346,529.1173" style="stroke:#000000;stroke-width:1;"/></g><!--link term to NUMBER\n10--><g class="link" data-entity-1="term" data-entity-2="NUMBER.n10" data-source-line="14" data-uid="lnk20" id="link_term_NUMBER.n10"><path d="M346,559.9273 C346,575.5073 346,594.5973 346,613.1473" fill="none" id="term-to-NUMBER\n10" style="stroke:#000000;stroke-width:1;"/><polygon fill="#000000" points="346,619.1473,350,610.1473,346,614.1473,342,610.1473,346,619.1473" style="stroke:#000000;stroke-width:1;"/></g><!--SRC=[ROu_3u8m4CNtVefpWu44LXCS_9SmI8p1pQN21HfAsxHdvEDRgGD1filxlNVtRaCT3WX6Sg6OwuKotF81dhpkMwjVgZbegIsyEq7860cI25Tk7K9b4RSW5C48EMGfOv6nklNRCIJ93Y97dFnjHOaKZcAs18lKFF3p6gobVuU4LjwTg-2BQUkV5yTJMHNdudHxg74raQzI78r5vqBTJ0INq0wUJoEGydxPVpkoD6OV]--></g></svg>