<svg xmlns="http://www.w3.org/2000/svg" xmlns:xlink="http://www.w3.org/1999/xlink" contentStyleType="text/css" data-diagram-type="DESCRIPTION" height="672px" preserveAspectRatio="none" style="width:579px;height:672px;background:#FFFFFF;" version="1.1" viewBox="0 0 579 672" width="579px" zoomAndPan="magnify"><title>Parse Tree: print(x + y * 2)</title><defs/><g><g class="title" data-source-line="4"><text fill="#000000" font-family="Verdana" font-size="22" font-weight="bold" lengthAdjust="spacing" textLength="341.376" x="114.7705" y="37.1182">Parse Tree: print(x + y * 2)</text></g><!--entity statement--><g class="entity" data-entity="statement" data-source-line="6" data-uid="ent0002" id="entity_statement"><ellipse cx="198.2732" cy="73.7685" fill="#FFFFFF" rx="53.4932" ry="15.0312" style="stroke:#000000;stroke-width:1;"/><text fill="#000000" font-family="Verdana" font-size="14" lengthAdjust="spacing" textLength="71.4082" x="162.5691" y="78.7758">statement</text></g><!--entity print_func--><g class="entity" data-entity="print_func" data-source-line="6" data-uid="ent0003" id="entity_print_func"><ellipse cx="198.2749" cy="163.8285" fill="#FFFFFF" rx="53.7349" ry="15.0312" style="stroke:#000000;stroke-width:1;"/><text fill="#000000" font-family="Verdana" font-size="14" lengthAdjust="spacing" textLength="71.75" x="162.3999" y="168.8358">print_func</text></g><!--entity print--><g class="entity" data-entity="print" data-source-line="7" data-uid="ent0005" id="entity_print"><ellipse cx="37.2744" cy="253.8885" fill="#FFFFFF" rx="26.2744" ry="15.0312" style="stroke:#000000;stroke-width:1;"/><text fill="#000000" font-family="Verdana" font-size="14" lengthAdjust="spacing" textLength="32.915" x="20.8169" y="258.8958">print</text></g><!--entity lparen--><g class="entity" data-entity="lparen" data-source-line="8" data-uid="ent0007" id="entity_lparen"><ellipse cx="132.2663" cy="253.8885" fill="#FFFFFF" rx="34.2163" ry="15.0312" style="stroke:#000000;stroke-width:1;"/><text fill="#000000" font-family="Verdana" font-size="14" lengthAdjust="spacing" textLength="44.1465" x="110.193" y="258.8958">lparen</text></g><!--entity expression1--><g class="entity" data-entity="expression1" data-source-line="9" data-uid="ent0009" id="entity_expression1"><ellipse cx="264.2735" cy="253.8885" fill="#FFFFFF" rx="62.6435" ry="15.0312" style="stroke:#000000;stroke-width:1;"/><text fill="#000000" font-family="Verdana" font-size="14" lengthAdjust="spacing" textLength="84.3486" x="222.0992" y="258.8958">expression1</text></g><!--entity rparen--><g class="entity" data-entity="rparen" data-source-line="10" data-uid="ent0011" id="entity_rparen"><ellipse cx="397.2744" cy="253.8885" fill="#FFFFFF" rx="35.7244" ry="15.0312" style="stroke:#000000;stroke-width:1;"/><text fill="#000000" font-family="Verdana" font-size="14" lengthAdjust="spacing" textLength="46.2793" x="374.1348" y="258.8958">rparen</text></g><!--entity expression2--><g class="entity" data-entity="expression2" data-source-line="12" data-uid="ent0013" id="entity_expression2"><ellipse cx="140.2735" cy="343.9585" fill="#FFFFFF" rx="62.6435" ry="15.0312" style="stroke:#000000;stroke-width:1;"/><text fill="#000000" font-family="Verdana" font-size="14" lengthAdjust="spacing" textLength="84.3486" x="98.0992" y="348.9658">expression2</text></g><!--entity plus--><g class="entity" data-entity="plus" data-source-line="13" data-uid="ent0015" id="entity_plus"><ellipse cx="264.2665" cy="343.9585" fill="#FFFFFF" rx="23.3065" ry="15.0312" style="stroke:#000000;stroke-width:1;"/><text fill="#000000" font-family="Verdana" font-size="14" lengthAdjust="spacing" textLength="28.7178" x="249.9076" y="348.9658">plus</text></g><!--entity expression3--><g class="entity" data-entity="expression3" data-source-line="14" data-uid="ent0017" id="entity_expression3"><ellipse cx="386.2735" cy="343.9585" fill="#FFFFFF" rx="62.6435" ry="15.0312" style="stroke:#000000;stroke-width:1;"/><text fill="#000000" font-family="Verdana" font-size="14" lengthAdjust="spacing" textLength="84.3486" x="344.0992" y="348.9658">expression3</text></g><!--entity term1--><g class="entity" data-entity="term1" data-source-line="16" data-uid="ent0019" id="entity_term1"><ellipse cx="134.265" cy="434.0185" fill="#FFFFFF" rx="32.945" ry="15.0312" style="stroke:#000000;stroke-width:1;"/><text fill="#000000" font-family="Verdana" font-size="14" lengthAdjust="spacing" textLength="42.3486" x="113.0907" y="439.0258">term1</text></g><!--entity "IDENTIFIER\nx"--><g class="entity" data-entity=".IDENTIFIER.nx." data-source-line="17" data-uid="ent0021" id="entity_.IDENTIFIER.nx."><ellipse cx="134.2742" cy="533.3848" fill="#FFFFFF" rx="59.1042" ry="24.3375" style="stroke:#000000;stroke-width:1;"/><text fill="#000000" font-family="Verdana" font-size="14" lengthAdjust="spacing" textLength="89.4756" x="89.5364" y="534.0235">"IDENTIFIER</text><text fill="#000000" font-family="Verdana" font-size="14" lengthAdjust="spacing" textLength="14.7109" x="126.9187" y="551.0381">x"</text></g><!--entity expression4--><g class="entity" data-entity="expression4" data-source-line="19" data-uid="ent0023" id="entity_expression4"><ellipse cx="265.2735" cy="434.0185" fill="#FFFFFF" rx="62.6435" ry="15.0312" style="stroke:#000000;stroke-width:1;"/><text fill="#000000" font-family="Verdana" font-size="14" lengthAdjust="spacing" textLength="84.3486" x="223.0992" y="439.0258">expression4</text></g><!--entity mult--><g class="entity" data-entity="mult" data-source-line="20" data-uid="ent0025" id="entity_mult"><ellipse cx="388.2707" cy="434.0185" fill="#FFFFFF" rx="25.5107" ry="15.0312" style="stroke:#000000;stroke-width:1;"/><text fill="#000000" font-family="Verdana" font-size="14" lengthAdjust="spacing" textLength="31.835" x="372.3532" y="439.0258">mult</text></g><!--entity expression5--><g class="entity" data-entity="expression5" data-source-line="21" data-uid="ent0027" id="entity_expression5"><ellipse cx="511.2735" cy="434.0185" fill="#FFFFFF" rx="62.6435" ry="15.0312" style="stroke:#000000;stroke-width:1;"/><text fill="#000000" font-family="Verdana" font-size="14" lengthAdjust="spacing" textLength="84.3486" x="469.0992" y="439.0258">expression5</text></g><!--entity term2--><g class="entity" data-entity="term2" data-source-line="23" data-uid="ent0029" id="entity_term2"><ellipse cx="265.265" cy="533.3885" fill="#FFFFFF" rx="32.945" ry="15.0312" style="stroke:#000000;stroke-width:1;"/><text fill="#000000" font-family="Verdana" font-size="14" lengthAdjust="spacing" textLength="42.3486" x="244.0907" y="538.3958">term2</text></g><!--entity "IDENTIFIER\ny"--><g class="entity" data-entity=".IDENTIFIER.ny." data-source-line="24" data-uid="ent0031" id="entity_.IDENTIFIER.ny."><ellipse cx="265.2742" cy="642.1248" fill="#FFFFFF" rx="59.1042" ry="24.3375" style="stroke:#000000;stroke-width:1;"/><text fill="#000000" font-family="Verdana" font-size="14" lengthAdjust="spacing" textLength="89.4756" x="220.5364" y="642.7635">"IDENTIFIER</text><text fill="#000000" font-family="Verdana" font-size="14" lengthAdjust="spacing" textLength="14.7109" x="257.9187" y="659.7781">y"</text></g><!--entity term3--><g class="entity" data-entity="term3" data-source-line="26" data-uid="ent0033" id="entity_term3"><ellipse cx="511.265" cy="533.3885" fill="#FFFFFF" rx="32.945" ry="15.0312" style="stroke:#000000;stroke-width:1;"/><text fill="#000000" font-family="Verdana" font-size="14" lengthAdjust="spacing" textLength="42.3486" x="490.0907" y="538.3958">term3</text></g><!--entity "NUMBER\n2"--><g class="entity" data-entity=".NUMBER.n2." data-source-line="27" data-uid="ent0035" id="entity_.NUMBER.n2."><ellipse cx="511.2694" cy="642.1294" fill="#FFFFFF" rx="45.2194" ry="24.4021" style="stroke:#000000;stroke-width:1;"/><text fill="#000000" font-family="Verdana" font-size="14" lengthAdjust="spacing" textLength="67.1289" x="477.705" y="642.6613">"NUMBER</text><text fill="#000000" font-family="Verdana" font-size="14" lengthAdjust="spacing" textLength="15.3262" x="503.6064" y="659.676">2"</text></g><!--link statement to print_func--><g class="link" data-entity-1="statement" data-entity-2="print_func" data-source-line="6" data-uid="lnk4" id="link_statement_print_func"><path d="M198.27,88.9173 C198.27,105.2473 198.27,125.9773 198.27,142.4273" fill="none" id="statement-to-print_func" style="stroke:#000000;stroke-width:1;"/><polygon fill="#000000" points="198.27,148.4273,202.27,139.4273,198.27,143.4273,194.27,139.4273,198.27,148.4273" style="stroke:#000000;stroke-width:1;"/></g><!--link print_func to print--><g class="link" data-entity-1="print_func" data-entity-2="print" data-source-line="7" data-uid="lnk6" id="link_print_func_print"><path d="M174.86,177.6373 C142.59,195.2873 90.3741,223.8482 60.9741,239.9282" fill="none" id="print_func-to-print" style="stroke:#000000;stroke-width:1;"/><polygon fill="#000000" points="55.71,242.8073,65.5255,241.998,60.0967,240.408,61.6867,234.9792,55.71,242.8073" style="stroke:#000000;stroke-width:1;"/></g><!--link print_func to lparen--><g class="link" data-entity-1="print_func" data-entity-2="lparen" data-source-line="8" data-uid="lnk8" id="link_print_func_lparen"><path d="M187.67,178.9773 C175.28,195.5073 158.5195,217.877 146.2295,234.267" fill="none" id="print_func-to-lparen" style="stroke:#000000;stroke-width:1;"/><polygon fill="#000000" points="142.63,239.0673,151.2295,234.2665,145.6296,235.067,144.8291,229.4671,142.63,239.0673" style="stroke:#000000;stroke-width:1;"/></g><!--link print_func to expression1--><g class="link" data-entity-1="print_func" data-entity-2="expression1" data-source-line="9" data-uid="lnk10" id="link_print_func_expression1"><path d="M208.88,178.9773 C221.19,195.4073 237.7909,217.5566 250.1009,233.9766" fill="none" id="print_func-to-expression1" style="stroke:#000000;stroke-width:1;"/><polygon fill="#000000" points="253.7,238.7773,251.5019,229.1769,250.7008,234.7767,245.1009,233.9756,253.7,238.7773" style="stroke:#000000;stroke-width:1;"/></g><!--link print_func to rparen--><g class="link" data-entity-1="print_func" data-entity-2="rparen" data-source-line="10" data-uid="lnk12" id="link_print_func_rparen"><path d="M225.94,177.0773 C265.14,194.4173 330.6831,223.4297 367.7731,239.8397" fill="none" id="print_func-to-rparen" style="stroke:#000000;stroke-width:1;"/><polygon fill="#000000" points="373.26,242.2673,366.648,234.9679,368.6875,240.2443,363.4112,242.2838,373.26,242.2673" style="stroke:#000000;stroke-width:1;"/></g><!--link expression1 to expression2--><g class="link" data-entity-1="expression1" data-entity-2="expression2" data-source-line="12" data-uid="lnk14" id="link_expression1_expression2"><path d="M244.9,268.6473 C221.6,285.1973 187.6423,309.3138 164.4023,325.8138" fill="none" id="expression1-to-expression2" style="stroke:#000000;stroke-width:1;"/><polygon fill="#000000" points="159.51,329.2873,169.1642,327.3386,163.5869,326.3927,164.5329,320.8155,159.51,329.2873" style="stroke:#000000;stroke-width:1;"/></g><!--link expression1 to plus--><g class="link" data-entity-1="expression1" data-entity-2="plus" data-source-line="13" data-uid="lnk16" id="link_expression1_plus"><path d="M264.27,269.0373 C264.27,285.3773 264.27,306.1073 264.27,322.5473" fill="none" id="expression1-to-plus" style="stroke:#000000;stroke-width:1;"/><polygon fill="#000000" points="264.27,328.5473,268.27,319.5473,264.27,323.5473,260.27,319.5473,264.27,328.5473" style="stroke:#000000;stroke-width:1;"/></g><!--link expression1 to expression3--><g class="link" data-entity-1="expression1" data-entity-2="expression3" data-source-line="14" data-uid="lnk18" id="link_expression1_expression3"><path d="M283.34,268.6473 C306.26,285.1973 339.6249,309.2758 362.4849,325.7758" fill="none" id="expression1-to-expression3" style="stroke:#000000;stroke-width:1;"/><polygon fill="#000000" points="367.35,329.2873,362.3934,320.7766,363.2958,326.361,357.7113,327.2634,367.35,329.2873" style="stroke:#000000;stroke-width:1;"/></g><!--link expression2 to term1--><g class="link" data-entity-1="expression2" data-entity-2="term1" data-source-line="16" data-uid="lnk20" id="link_expression2_term1"><path d="M139.31,359.1073 C138.2,375.4373 136.7878,396.1812 135.6678,412.6212" fill="none" id="expression2-to-term1" style="stroke:#000000;stroke-width:1;"/><polygon fill="#000000" points="135.26,418.6073,139.8625,409.9,135.5998,413.6189,131.881,409.3562,135.26,418.6073" style="stroke:#000000;stroke-width:1;"/></g><!--link term1 to "IDENTIFIER\nx"--><g class="link" data-entity-1="term1" data-entity-2=".IDENTIFIER.nx." data-source-line="17" data-uid="lnk22" id="link_term1_.IDENTIFIER.nx."><path d="M134.27,449.3873 C134.27,465.0473 134.27,484.3373 134.27,502.8973" fill="none" id="term1-to-&quot;IDENTIFIER\nx&quot;" style="stroke:#000000;stroke-width:1;"/><polygon fill="#000000" points="134.27,508.8973,138.27,499.8973,134.27,503.8973,130.27,499.8973,134.27,508.8973" style="stroke:#000000;stroke-width:1;"/></g><!--link expression3 to expression4--><g class="link" data-entity-1="expression3" data-entity-2="expression4" data-source-line="19" data-uid="lnk24" id="link_expression3_expression4"><path d="M367.37,358.7173 C344.64,375.2573 311.5711,399.3265 288.9011,415.8265" fill="none" id="expression3-to-expression4" style="stroke:#000000;stroke-width:1;"/><polygon fill="#000000" points="284.05,419.3573,293.6806,417.2952,288.0926,416.415,288.9728,410.827,284.05,419.3573" style="stroke:#000000;stroke-width:1;"/></g><!--link expression3 to mult--><g class="link" data-entity-1="expression3" data-entity-2="mult" data-source-line="20" data-uid="lnk26" id="link_expression3_mult"><path d="M386.6,359.1073 C386.97,375.4373 387.4314,396.1689 387.8114,412.6089" fill="none" id="expression3-to-mult" style="stroke:#000000;stroke-width:1;"/><polygon fill="#000000" points="387.95,418.6073,391.741,409.5173,387.8345,413.6086,383.7431,409.7021,387.95,418.6073" style="stroke:#000000;stroke-width:1;"/></g><!--link expression3 to expression5--><g class="link" data-entity-1="expression3" data-entity-2="expression5" data-source-line="21" data-uid="lnk28" id="link_expression3_expression5"><path d="M405.81,358.7173 C429.29,375.2573 463.5551,399.4016 486.9751,415.9016" fill="none" id="expression3-to-expression5" style="stroke:#000000;stroke-width:1;"/><polygon fill="#000000" points="491.88,419.3573,486.8264,410.9039,487.7926,416.4776,482.2188,417.4438,491.88,419.3573" style="stroke:#000000;stroke-width:1;"/></g><!--link expression4 to term2--><g class="link" data-entity-1="expression4" data-entity-2="term2" data-source-line="23" data-uid="lnk30" id="link_expression4_term2"><path d="M265.27,449.3873 C265.27,467.7973 265.27,493.5173 265.27,511.9573" fill="none" id="expression4-to-term2" style="stroke:#000000;stroke-width:1;"/><polygon fill="#000000" points="265.27,517.9573,269.27,508.9573,265.27,512.9573,261.27,508.9573,265.27,517.9573" style="stroke:#000000;stroke-width:1;"/></g><!--link term2 to "IDENTIFIER\ny"--><g class="link" data-entity-1="term2" data-entity-2=".IDENTIFIER.ny." data-source-line="24" data-uid="lnk32" id="link_term2_.IDENTIFIER.ny."><path d="M265.27,548.7773 C265.27,566.4173 265.27,590.5573 265.27,611.5873" fill="none" id="term2-to-&quot;IDENTIFIER\ny&quot;" style="stroke:#000000;stroke-width:1;"/><polygon fill="#000000" points="265.27,617.5873,269.27,608.5873,265.27,612.5873,261.27,608.5873,265.27,617.5873" style="stroke:#000000;stroke-width:1;"/></g><!--link expression5 to term3--><g class="link" data-entity-1="expression5" data-entity-2="term3" data-source-line="26" data-uid="lnk34" id="link_expression5_term3"><path d="M511.27,449.3873 C511.27,467.7973 511.27,493.5173 511.27,511.9573" fill="none" id="expression5-to-term3" style="stroke:#000000;stroke-width:1;"/><polygon fill="#000000" points="511.27,517.9573,515.27,508.9573,511.27,512.9573,507.27,508.9573,511.27,517.9573" style="stroke:#000000;stroke-width:1;"/></g><!--link term3 to "NUMBER\n2"--><g class="link" data-entity-1="term3" data-entity-2=".NUMBER.n2." data-source-line="27" data-uid="lnk36" id="link_term3_.NUMBER.n2."><path d="M511.27,548.7773 C511.27,566.4173 511.27,590.5573 511.27,611.5873" fill="none" id="term3-to-&quot;NUMBER\n2&quot;" style="stroke:#000000;stroke-width:1;"/><polygon fill="#000000" points="511.27,617.5873,515.27,608.5873,511.27,612.5873,507.27,608.5873,511.27,617.5873" style="stroke:#000000;stroke-width:1;"/></g><!--SRC=[VOunJyCm48Lt_ueZKmpgWDCk30n0aJ9G8LGs9EIMQslLkLZdYqZ_FIaDKbAiJfRztlVyNSaEAuJWhICLzuw2PLl1ogxtMwuR-dgiVStmlNE2IeaJZ_1gEI8i6V4E0ZkIl8KREC0r6ArK7iLAjqcYOJAvX_otyhbfQAtLy398Ku7lJ91I2RQ1CKPNqsqgvXvKe-8vsgacyk2Rg2-3nNZPz0L1heuwf_FqbfLFyyMoV2xdRn_KPcEm-BSyrQcyQhpeo-1il3mTA9bUoQIK3cTAim5OzE3VRzdY_UNX29aE-W40]--></g></svg>