<svg xmlns="http://www.w3.org/2000/svg" xmlns:xlink="http://www.w3.org/1999/xlink" contentStyleType="text/css" data-diagram-type="ACTIVITY" height="703px" preserveAspectRatio="none" style="width:955px;height:703px;background:#FFFFFF;" version="1.1" viewBox="0 0 955 703" width="955px" zoomAndPan="magnify"><title>jnr Statement Syntax Flow</title><defs/><g><g class="title" data-source-line="4"><text fill="#000000" font-family="Verdana" font-size="22" font-weight="bold" lengthAdjust="spacing" textLength="330.1289" x="311.173" y="37.1182">jnr Statement Syntax Flow</text></g><ellipse cx="463.7649" cy="62.7373" fill="#FFFFFF" rx="10" ry="10" style="stroke:#000000;stroke-width:1;"/><rect fill="#FFFFFF" height="34.584" rx="12.5" ry="12.5" style="stroke:#000000;stroke-width:1;" width="86.8379" x="420.3459" y="92.7373"/><text fill="#000000" font-family="Verdana" font-size="12" lengthAdjust="spacing" textLength="66.8379" x="430.3459" y="114.8018">Read Input</text><polygon fill="#FFFFFF" points="80.3848,147.3213,174.8408,147.3213,186.8408,159.3213,174.8408,171.3213,80.3848,171.3213,68.3848,159.3213,80.3848,147.3213" style="stroke:#000000;stroke-width:1;"/><text fill="#000000" font-family="Verdana" font-size="11" lengthAdjust="spacing" textLength="62.6753" x="131.6128" y="182.3804">Declaration</text><text fill="#000000" font-family="Verdana" font-size="11" lengthAdjust="spacing" textLength="94.4561" x="80.3848" y="163.696">Statement Type?</text><rect fill="#FFFFFF" height="49.168" rx="12.5" ry="12.5" style="stroke:#000000;stroke-width:1;" width="110.3164" x="72.4546" y="204.6899"/><text fill="#000000" font-family="Verdana" font-size="12" lengthAdjust="spacing" textLength="85.6055" x="82.4546" y="226.7544">Type Keyword</text><text fill="#000000" font-family="Verdana" font-size="12" lengthAdjust="spacing" textLength="90.3164" x="82.4546" y="241.3384">(int/char/float)</text><rect fill="#FFFFFF" height="34.584" rx="12.5" ry="12.5" style="stroke:#000000;stroke-width:1;" width="75.0723" x="90.0767" y="288.8579"/><text fill="#000000" font-family="Verdana" font-size="12" lengthAdjust="spacing" textLength="55.0723" x="100.0767" y="310.9224">Identifier</text><rect fill="#FFFFFF" height="34.584" rx="12.5" ry="12.5" style="stroke:#000000;stroke-width:1;" width="104.252" x="75.4868" y="358.4419"/><text fill="#000000" font-family="Verdana" font-size="12" lengthAdjust="spacing" textLength="84.252" x="85.4868" y="380.5063">Assignment =</text><polygon fill="#FFFFFF" points="111.2659,428.0259,143.9597,428.0259,155.9597,440.0259,143.9597,452.0259,111.2659,452.0259,99.2659,440.0259,111.2659,428.0259" style="stroke:#000000;stroke-width:1;"/><text fill="#000000" font-family="Verdana" font-size="11" lengthAdjust="spacing" textLength="32.6938" x="111.2659" y="444.4006">Type?</text><text fill="#000000" font-family="Verdana" font-size="11" lengthAdjust="spacing" textLength="23.9927" x="75.2732" y="437.7163">char</text><text fill="#000000" font-family="Verdana" font-size="11" lengthAdjust="spacing" textLength="43.812" x="155.9597" y="437.7163">int/float</text><rect fill="#FFFFFF" height="34.584" rx="12.5" ry="12.5" style="stroke:#000000;stroke-width:1;" width="120.4473" x="6" y="462.0259"/><text fill="#000000" font-family="Verdana" font-size="12" lengthAdjust="spacing" textLength="100.4473" x="16" y="484.0903">Character Literal</text><rect fill="#FFFFFF" height="34.584" rx="12.5" ry="12.5" style="stroke:#000000;stroke-width:1;" width="85.1094" x="146.4473" y="462.0259"/><text fill="#000000" font-family="Verdana" font-size="12" lengthAdjust="spacing" textLength="65.1094" x="156.4473" y="484.0903">Expression</text><polygon fill="#FFFFFF" points="127.6128,502.6099,139.6128,514.6099,127.6128,526.6099,115.6128,514.6099,127.6128,502.6099" style="stroke:#000000;stroke-width:1;"/><polygon fill="#FFFFFF" points="263.5566,147.3213,327.9185,147.3213,339.9185,159.3213,327.9185,171.3213,263.5566,171.3213,251.5566,159.3213,263.5566,147.3213" style="stroke:#000000;stroke-width:1;"/><text fill="#000000" font-family="Verdana" font-size="11" lengthAdjust="spacing" textLength="64.3618" x="263.5566" y="163.696">Assignment</text><rect fill="#FFFFFF" height="34.584" rx="12.5" ry="12.5" style="stroke:#000000;stroke-width:1;" width="75.0723" x="258.2014" y="191.3213"/><text fill="#000000" font-family="Verdana" font-size="12" lengthAdjust="spacing" textLength="55.0723" x="268.2014" y="213.3857">Identifier</text><rect fill="#FFFFFF" height="34.584" rx="12.5" ry="12.5" style="stroke:#000000;stroke-width:1;" width="104.252" x="243.6116" y="260.9053"/><text fill="#000000" font-family="Verdana" font-size="12" lengthAdjust="spacing" textLength="84.252" x="253.6116" y="282.9697">Assignment =</text><rect fill="#FFFFFF" height="34.584" rx="12.5" ry="12.5" style="stroke:#000000;stroke-width:1;" width="85.1094" x="253.1829" y="330.4893"/><text fill="#000000" font-family="Verdana" font-size="12" lengthAdjust="spacing" textLength="65.1094" x="263.1829" y="352.5537">Expression</text><polygon fill="#FFFFFF" points="549.95,147.3213,575.5916,147.3213,587.5916,159.3213,575.5916,171.3213,549.95,171.3213,537.95,159.3213,549.95,147.3213" style="stroke:#000000;stroke-width:1;"/><text fill="#000000" font-family="Verdana" font-size="11" lengthAdjust="spacing" textLength="25.6416" x="549.95" y="163.696">Print</text><rect fill="#FFFFFF" height="34.584" rx="12.5" ry="12.5" style="stroke:#000000;stroke-width:1;" width="48.2129" x="538.6643" y="191.3213"/><text fill="#000000" font-family="Verdana" font-size="12" lengthAdjust="spacing" textLength="28.2129" x="548.6643" y="213.3857">print</text><rect fill="#FFFFFF" height="34.584" rx="12.5" ry="12.5" style="stroke:#000000;stroke-width:1;" width="25.4492" x="550.0461" y="260.9053"/><text fill="#000000" font-family="Verdana" font-size="12" lengthAdjust="spacing" textLength="5.4492" x="560.0461" y="282.9697">(</text><polygon fill="#FFFFFF" points="398.1736,355.4893,458.7488,355.4893,470.7488,367.4893,458.7488,379.4893,398.1736,379.4893,386.1736,367.4893,398.1736,355.4893" style="stroke:#000000;stroke-width:1;"/><text fill="#000000" font-family="Verdana" font-size="11" lengthAdjust="spacing" textLength="59.6836" x="432.4612" y="390.5483">Expression</text><text fill="#000000" font-family="Verdana" font-size="11" lengthAdjust="spacing" textLength="60.5752" x="398.1736" y="371.864">Argument?</text><rect fill="#FFFFFF" height="34.584" rx="12.5" ry="12.5" style="stroke:#000000;stroke-width:1;" width="141.1953" x="357.8635" y="412.8579"/><text fill="#000000" font-family="Verdana" font-size="12" lengthAdjust="spacing" textLength="121.1953" x="367.8635" y="434.9224">Evaluate Expression</text><polygon fill="#FFFFFF" points="547.2036,355.4893,611.3613,355.4893,623.3613,367.4893,611.3613,379.4893,547.2036,379.4893,535.2036,367.4893,547.2036,355.4893" style="stroke:#000000;stroke-width:1;"/><text fill="#000000" font-family="Verdana" font-size="11" lengthAdjust="spacing" textLength="64.1577" x="547.2036" y="371.864">Char Literal</text><text fill="#000000" font-family="Verdana" font-size="11" lengthAdjust="spacing" textLength="50.4829" x="623.3613" y="365.1797">Identifier</text><rect fill="#FFFFFF" height="34.584" rx="12.5" ry="12.5" style="stroke:#000000;stroke-width:1;" width="120.4473" x="519.0588" y="399.4893"/><text fill="#000000" font-family="Verdana" font-size="12" lengthAdjust="spacing" textLength="100.4473" x="529.0588" y="421.5537">Character Literal</text><rect fill="#FFFFFF" height="34.584" rx="12.5" ry="12.5" style="stroke:#000000;stroke-width:1;" width="108.1719" x="659.5061" y="409.1736"/><text fill="#000000" font-family="Verdana" font-size="12" lengthAdjust="spacing" textLength="88.1719" x="669.5061" y="431.238">Variable Name</text><rect fill="#FFFFFF" height="34.584" rx="12.5" ry="12.5" style="stroke:#000000;stroke-width:1;" width="25.4492" x="550.0461" y="546.6099"/><text fill="#000000" font-family="Verdana" font-size="12" lengthAdjust="spacing" textLength="5.4492" x="560.0461" y="568.6743">)</text><polygon fill="#FFFFFF" points="800.3442,147.3213,830.084,147.3213,842.084,159.3213,830.084,171.3213,800.3442,171.3213,788.3442,159.3213,800.3442,147.3213" style="stroke:#000000;stroke-width:1;"/><text fill="#000000" font-family="Verdana" font-size="11" lengthAdjust="spacing" textLength="29.7397" x="800.3442" y="163.696">Input</text><text fill="#000000" font-family="Verdana" font-size="11" lengthAdjust="spacing" textLength="61.875" x="842.084" y="157.0117">Empty Line</text><rect fill="#FFFFFF" height="34.584" rx="12.5" ry="12.5" style="stroke:#000000;stroke-width:1;" width="50.6855" x="789.8713" y="191.3213"/><text fill="#000000" font-family="Verdana" font-size="12" lengthAdjust="spacing" textLength="30.6855" x="799.8713" y="213.3857">input</text><rect fill="#FFFFFF" height="34.584" rx="12.5" ry="12.5" style="stroke:#000000;stroke-width:1;" width="25.4492" x="802.4895" y="260.9053"/><text fill="#000000" font-family="Verdana" font-size="12" lengthAdjust="spacing" textLength="5.4492" x="812.4895" y="282.9697">(</text><rect fill="#FFFFFF" height="34.584" rx="12.5" ry="12.5" style="stroke:#000000;stroke-width:1;" width="75.0723" x="777.678" y="330.4893"/><text fill="#000000" font-family="Verdana" font-size="12" lengthAdjust="spacing" textLength="55.0723" x="787.678" y="352.5537">Identifier</text><rect fill="#FFFFFF" height="34.584" rx="12.5" ry="12.5" style="stroke:#000000;stroke-width:1;" width="25.4492" x="802.4895" y="400.0732"/><text fill="#000000" font-family="Verdana" font-size="12" lengthAdjust="spacing" textLength="5.4492" x="812.4895" y="422.1377">)</text><rect fill="#FFFFFF" height="34.584" rx="12.5" ry="12.5" style="stroke:#000000;stroke-width:1;" width="76.7246" x="872.7502" y="377.3816"/><text fill="#000000" font-family="Verdana" font-size="12" lengthAdjust="spacing" textLength="56.7246" x="882.7502" y="399.446">NEWLINE</text><rect fill="#FFFFFF" height="34.584" rx="12.5" ry="12.5" style="stroke:#000000;stroke-width:1;" width="134.9375" x="396.2961" y="621.1938"/><text fill="#000000" font-family="Verdana" font-size="12" lengthAdjust="spacing" textLength="114.9375" x="406.2961" y="643.2583">Execute Statement</text><ellipse cx="463.7649" cy="686.7778" fill="none" rx="11" ry="11" style="stroke:#000000;stroke-width:1;"/><ellipse cx="463.7649" cy="686.7778" fill="#FFFFFF" rx="6" ry="6" style="stroke:#000000;stroke-width:1;"/><line style="stroke:#000000;stroke-width:1;" x1="463.7649" x2="463.7649" y1="72.7373" y2="92.7373"/><polygon fill="#000000" points="459.7649,82.7373,463.7649,92.7373,467.7649,82.7373,463.7649,86.7373" style="stroke:#000000;stroke-width:1;"/><line style="stroke:#000000;stroke-width:1;" x1="127.6128" x2="127.6128" y1="253.8579" y2="288.8579"/><polygon fill="#000000" points="123.6128,278.8579,127.6128,288.8579,131.6128,278.8579,127.6128,282.8579" style="stroke:#000000;stroke-width:1;"/><line style="stroke:#000000;stroke-width:1;" x1="127.6128" x2="127.6128" y1="323.4419" y2="358.4419"/><polygon fill="#000000" points="123.6128,348.4419,127.6128,358.4419,131.6128,348.4419,127.6128,352.4419" style="stroke:#000000;stroke-width:1;"/><line style="stroke:#000000;stroke-width:1;" x1="99.2659" x2="66.2236" y1="440.0259" y2="440.0259"/><line style="stroke:#000000;stroke-width:1;" x1="66.2236" x2="66.2236" y1="440.0259" y2="462.0259"/><polygon fill="#000000" points="62.2236,452.0259,66.2236,462.0259,70.2236,452.0259,66.2236,456.0259" style="stroke:#000000;stroke-width:1;"/><line style="stroke:#000000;stroke-width:1;" x1="155.9597" x2="189.002" y1="440.0259" y2="440.0259"/><line style="stroke:#000000;stroke-width:1;" x1="189.002" x2="189.002" y1="440.0259" y2="462.0259"/><polygon fill="#000000" points="185.002,452.0259,189.002,462.0259,193.002,452.0259,189.002,456.0259" style="stroke:#000000;stroke-width:1;"/><line style="stroke:#000000;stroke-width:1;" x1="66.2236" x2="66.2236" y1="496.6099" y2="514.6099"/><line style="stroke:#000000;stroke-width:1;" x1="66.2236" x2="115.6128" y1="514.6099" y2="514.6099"/><polygon fill="#000000" points="105.6128,510.6099,115.6128,514.6099,105.6128,518.6099,109.6128,514.6099" style="stroke:#000000;stroke-width:1;"/><line style="stroke:#000000;stroke-width:1;" x1="189.002" x2="189.002" y1="496.6099" y2="514.6099"/><line style="stroke:#000000;stroke-width:1;" x1="189.002" x2="139.6128" y1="514.6099" y2="514.6099"/><polygon fill="#000000" points="149.6128,510.6099,139.6128,514.6099,149.6128,518.6099,145.6128,514.6099" style="stroke:#000000;stroke-width:1;"/><line style="stroke:#000000;stroke-width:1;" x1="127.6128" x2="127.6128" y1="393.0259" y2="428.0259"/><polygon fill="#000000" points="123.6128,418.0259,127.6128,428.0259,131.6128,418.0259,127.6128,422.0259" style="stroke:#000000;stroke-width:1;"/><line style="stroke:#000000;stroke-width:1;" x1="295.7375" x2="295.7375" y1="225.9053" y2="260.9053"/><polygon fill="#000000" points="291.7375,250.9053,295.7375,260.9053,299.7375,250.9053,295.7375,254.9053" style="stroke:#000000;stroke-width:1;"/><line style="stroke:#000000;stroke-width:1;" x1="295.7375" x2="295.7375" y1="295.4893" y2="330.4893"/><polygon fill="#000000" points="291.7375,320.4893,295.7375,330.4893,299.7375,320.4893,295.7375,324.4893" style="stroke:#000000;stroke-width:1;"/><line style="stroke:#000000;stroke-width:1;" x1="562.7708" x2="562.7708" y1="225.9053" y2="260.9053"/><polygon fill="#000000" points="558.7708,250.9053,562.7708,260.9053,566.7708,250.9053,562.7708,254.9053" style="stroke:#000000;stroke-width:1;"/><line style="stroke:#000000;stroke-width:1;" x1="428.4612" x2="428.4612" y1="379.4893" y2="412.8579"/><polygon fill="#000000" points="424.4612,402.8579,428.4612,412.8579,432.4612,402.8579,428.4612,406.8579" style="stroke:#000000;stroke-width:1;"/><line style="stroke:#000000;stroke-width:1;" x1="428.4612" x2="428.4612" y1="447.4419" y2="522.4419"/><polygon fill="#000000" points="424.4612,512.4419,428.4612,522.4419,432.4612,512.4419,428.4612,516.4419" style="stroke:#000000;stroke-width:1;"/><line style="stroke:#000000;stroke-width:1;" x1="579.2825" x2="579.2825" y1="379.4893" y2="399.4893"/><polygon fill="#000000" points="575.2825,389.4893,579.2825,399.4893,583.2825,389.4893,579.2825,393.4893" style="stroke:#000000;stroke-width:1;"/><line style="stroke:#000000;stroke-width:1;" x1="579.2825" x2="579.2825" y1="434.0732" y2="522.4419"/><polygon fill="#000000" points="575.2825,512.4419,579.2825,522.4419,583.2825,512.4419,579.2825,516.4419" style="stroke:#000000;stroke-width:1;"/><line style="stroke:#000000;stroke-width:1;" x1="470.7488" x2="535.2036" y1="367.4893" y2="367.4893"/><polygon fill="#000000" points="525.2036,363.4893,535.2036,367.4893,525.2036,371.4893,529.2036,367.4893" style="stroke:#000000;stroke-width:1;"/><line style="stroke:#000000;stroke-width:1;" x1="562.7708" x2="562.7708" y1="295.4893" y2="330.4893"/><line style="stroke:#000000;stroke-width:1;" x1="562.7708" x2="428.4612" y1="330.4893" y2="330.4893"/><line style="stroke:#000000;stroke-width:1;" x1="428.4612" x2="428.4612" y1="330.4893" y2="355.4893"/><polygon fill="#000000" points="424.4612,345.4893,428.4612,355.4893,432.4612,345.4893,428.4612,349.4893" style="stroke:#000000;stroke-width:1;"/><line style="stroke:#000000;stroke-width:1;" x1="623.3613" x2="713.592" y1="367.4893" y2="367.4893"/><line style="stroke:#000000;stroke-width:1;" x1="713.592" x2="713.592" y1="367.4893" y2="409.1736"/><polygon fill="#000000" points="709.592,399.1736,713.592,409.1736,717.592,399.1736,713.592,403.1736" style="stroke:#000000;stroke-width:1;"/><line style="stroke:#000000;stroke-width:1;" x1="713.592" x2="713.592" y1="443.7576" y2="522.4419"/><polygon fill="#000000" points="709.592,512.4419,713.592,522.4419,717.592,512.4419,713.592,516.4419" style="stroke:#000000;stroke-width:1;"/><line style="stroke:#000000;stroke-width:1;" x1="428.4612" x2="713.592" y1="522.4419" y2="522.4419"/><line style="stroke:#000000;stroke-width:1;" x1="562.7708" x2="562.7708" y1="522.4419" y2="546.6099"/><polygon fill="#000000" points="558.7708,536.6099,562.7708,546.6099,566.7708,536.6099,562.7708,540.6099" style="stroke:#000000;stroke-width:1;"/><line style="stroke:#000000;stroke-width:1;" x1="815.2141" x2="815.2141" y1="225.9053" y2="260.9053"/><polygon fill="#000000" points="811.2141,250.9053,815.2141,260.9053,819.2141,250.9053,815.2141,254.9053" style="stroke:#000000;stroke-width:1;"/><line style="stroke:#000000;stroke-width:1;" x1="815.2141" x2="815.2141" y1="295.4893" y2="330.4893"/><polygon fill="#000000" points="811.2141,320.4893,815.2141,330.4893,819.2141,320.4893,815.2141,324.4893" style="stroke:#000000;stroke-width:1;"/><line style="stroke:#000000;stroke-width:1;" x1="815.2141" x2="815.2141" y1="365.0732" y2="400.0732"/><polygon fill="#000000" points="811.2141,390.0732,815.2141,400.0732,819.2141,390.0732,815.2141,394.0732" style="stroke:#000000;stroke-width:1;"/><line style="stroke:#000000;stroke-width:1;" x1="127.6128" x2="127.6128" y1="171.3213" y2="204.6899"/><polygon fill="#000000" points="123.6128,194.6899,127.6128,204.6899,131.6128,194.6899,127.6128,198.6899" style="stroke:#000000;stroke-width:1;"/><line style="stroke:#000000;stroke-width:1;" x1="127.6128" x2="127.6128" y1="526.6099" y2="601.1938"/><polygon fill="#000000" points="123.6128,591.1938,127.6128,601.1938,131.6128,591.1938,127.6128,595.1938" style="stroke:#000000;stroke-width:1;"/><line style="stroke:#000000;stroke-width:1;" x1="295.7375" x2="295.7375" y1="171.3213" y2="191.3213"/><polygon fill="#000000" points="291.7375,181.3213,295.7375,191.3213,299.7375,181.3213,295.7375,185.3213" style="stroke:#000000;stroke-width:1;"/><line style="stroke:#000000;stroke-width:1;" x1="295.7375" x2="295.7375" y1="365.0732" y2="601.1938"/><polygon fill="#000000" points="291.7375,591.1938,295.7375,601.1938,299.7375,591.1938,295.7375,595.1938" style="stroke:#000000;stroke-width:1;"/><line style="stroke:#000000;stroke-width:1;" x1="562.7708" x2="562.7708" y1="171.3213" y2="191.3213"/><polygon fill="#000000" points="558.7708,181.3213,562.7708,191.3213,566.7708,181.3213,562.7708,185.3213" style="stroke:#000000;stroke-width:1;"/><line style="stroke:#000000;stroke-width:1;" x1="562.7708" x2="562.7708" y1="581.1938" y2="601.1938"/><polygon fill="#000000" points="558.7708,591.1938,562.7708,601.1938,566.7708,591.1938,562.7708,595.1938" style="stroke:#000000;stroke-width:1;"/><line style="stroke:#000000;stroke-width:1;" x1="815.2141" x2="815.2141" y1="171.3213" y2="191.3213"/><polygon fill="#000000" points="811.2141,181.3213,815.2141,191.3213,819.2141,181.3213,815.2141,185.3213" style="stroke:#000000;stroke-width:1;"/><line style="stroke:#000000;stroke-width:1;" x1="815.2141" x2="815.2141" y1="434.6572" y2="601.1938"/><polygon fill="#000000" points="811.2141,591.1938,815.2141,601.1938,819.2141,591.1938,815.2141,595.1938" style="stroke:#000000;stroke-width:1;"/><line style="stroke:#000000;stroke-width:1;" x1="186.8408" x2="251.5566" y1="159.3213" y2="159.3213"/><polygon fill="#000000" points="241.5566,155.3213,251.5566,159.3213,241.5566,163.3213,245.5566,159.3213" style="stroke:#000000;stroke-width:1;"/><line style="stroke:#000000;stroke-width:1;" x1="339.9185" x2="537.95" y1="159.3213" y2="159.3213"/><polygon fill="#000000" points="527.95,155.3213,537.95,159.3213,527.95,163.3213,531.95,159.3213" style="stroke:#000000;stroke-width:1;"/><line style="stroke:#000000;stroke-width:1;" x1="587.5916" x2="788.3442" y1="159.3213" y2="159.3213"/><polygon fill="#000000" points="778.3442,155.3213,788.3442,159.3213,778.3442,163.3213,782.3442,159.3213" style="stroke:#000000;stroke-width:1;"/><line style="stroke:#000000;stroke-width:1;" x1="463.7649" x2="463.7649" y1="127.3213" y2="132.3213"/><line style="stroke:#000000;stroke-width:1;" x1="463.7649" x2="127.6128" y1="132.3213" y2="132.3213"/><line style="stroke:#000000;stroke-width:1;" x1="127.6128" x2="127.6128" y1="132.3213" y2="147.3213"/><polygon fill="#000000" points="123.6128,137.3213,127.6128,147.3213,131.6128,137.3213,127.6128,141.3213" style="stroke:#000000;stroke-width:1;"/><line style="stroke:#000000;stroke-width:1;" x1="842.084" x2="911.1125" y1="159.3213" y2="159.3213"/><line style="stroke:#000000;stroke-width:1;" x1="911.1125" x2="911.1125" y1="159.3213" y2="377.3816"/><polygon fill="#000000" points="907.1125,367.3816,911.1125,377.3816,915.1125,367.3816,911.1125,371.3816" style="stroke:#000000;stroke-width:1;"/><line style="stroke:#000000;stroke-width:1;" x1="911.1125" x2="911.1125" y1="411.9656" y2="601.1938"/><polygon fill="#000000" points="907.1125,591.1938,911.1125,601.1938,915.1125,591.1938,911.1125,595.1938" style="stroke:#000000;stroke-width:1;"/><line style="stroke:#000000;stroke-width:1;" x1="127.6128" x2="911.1125" y1="601.1938" y2="601.1938"/><line style="stroke:#000000;stroke-width:1;" x1="463.7649" x2="463.7649" y1="601.1938" y2="621.1938"/><polygon fill="#000000" points="459.7649,611.1938,463.7649,621.1938,467.7649,611.1938,463.7649,615.1938" style="stroke:#000000;stroke-width:1;"/><line style="stroke:#000000;stroke-width:1;" x1="463.7649" x2="463.7649" y1="655.7778" y2="675.7778"/><polygon fill="#000000" points="459.7649,665.7778,463.7649,675.7778,467.7649,665.7778,463.7649,669.7778" style="stroke:#000000;stroke-width:1;"/><!--SRC=[ZP91Ry8m38Nl-HNUhJrnfvecn9Y4Xj0qfksoYsbTo4YJA7K7_VTpMae7b-tKj7r-pv-TEzvJHU0DQglgWxOU0rQmnVom2wwnnTmP5-2urqnAiMP3y6K3R1XP2Yt3fhMC9tWoxgXKpHXOgUahOG5BwnlEbD8b9AF-hVNqa8BaMaWUAJSIoDhPL05CuqzuflReGl5f4srvakynJ4hZaDCiIfQ5kEXIK-XUPtMjTxPpleyVOjXLHAoFtgATon5pfW0hmGbeOW6Pcg1BwaDwwUBa0ucrivt65hgKfuhYc32cfl_ewSRjul8IzDd0nrCdJGQ8MTWrqU82CfeCFNwZQMIiSDFisJtI3g1_3s14E6lVCMZSohhNMD7l8KpJAuXkons4xlSzGDnEPImJbifpAqrOwYhNYu_LSht8L9-XP62KDq9skJPPl5lEgny0]--></g></svg>